<?xml version="1.0" encoding="UTF-8"?>
<!DOCTYPE svg PUBLIC "-//W3C//DTD SVG 1.1//EN" "http://www.w3.org/Graphics/SVG/1.1/DTD/svg11.dtd">
<!-- Creator: CorelDRAW 2019 (64-Bit) -->
<svg xmlns="http://www.w3.org/2000/svg" xml:space="preserve" width="861px" height="825px" version="1.1" style="shape-rendering:geometricPrecision; text-rendering:geometricPrecision; image-rendering:optimizeQuality; fill-rule:evenodd; clip-rule:evenodd"
viewBox="0 0 163.1 156.32"
 xmlns:xlink="http://www.w3.org/1999/xlink">
 <defs>
  <style type="text/css">
   <![CDATA[
    .fil1 {fill:#1788CF}
    .fil4 {fill:#1A3796}
    .fil3 {fill:#313D80}
    .fil5 {fill:#3FBBE0}
    .fil23 {fill:#785800}
    .fil2 {fill:#F8AD43}
    .fil0 {fill:#FFF7ED}
    .fil18 {fill:#0042C7;fill-rule:nonzero}
    .fil15 {fill:#00CCFF;fill-rule:nonzero}
    .fil13 {fill:#050F64;fill-rule:nonzero}
    .fil22 {fill:#155BCC;fill-rule:nonzero}
    .fil8 {fill:#155BCD;fill-rule:nonzero}
    .fil20 {fill:#155BCD;fill-rule:nonzero}
    .fil6 {fill:#336699;fill-rule:nonzero}
    .fil14 {fill:#7676E3;fill-rule:nonzero}
    .fil10 {fill:#84A9FF;fill-rule:nonzero}
    .fil12 {fill:#DCA000;fill-rule:nonzero}
    .fil11 {fill:#E5E6EB;fill-rule:nonzero}
    .fil16 {fill:#EA8096;fill-rule:nonzero}
    .fil19 {fill:#F4BCC7;fill-rule:nonzero}
    .fil17 {fill:#F5BDC8;fill-rule:nonzero}
    .fil9 {fill:#FFBD00;fill-rule:nonzero}
    .fil7 {fill:white;fill-rule:nonzero}
    .fil21 {fill:white;fill-rule:nonzero}
   ]]>
  </style>
 </defs>
 <g id="Layer_x0020_1">
  <metadata id="CorelCorpID_0Corel-Layer"/>
  <g id="_2083394122640">
   <g>
    <path class="fil0" d="M4.18 29.79c0,15.4 12.49,27.89 27.89,27.89 15.4,0 27.89,-12.49 27.89,-27.89 0,-15.4 -12.49,-27.89 -27.89,-27.89 -15.4,0 -27.89,12.49 -27.89,27.89z"/>
    <rect class="fil1" transform="matrix(0.0448305 -0.0258934 0.0258934 0.0448306 41.8502 47.8479)" width="21.64" height="79.69"/>
    <rect class="fil1" x="31.51" y="50.32" width="1.12" height="4.13"/>
    <rect class="fil1" transform="matrix(0.0448351 0.0258855 -0.0258855 0.0448351 21.3147 47.2923)" width="21.64" height="79.69"/>
    <rect class="fil1" transform="matrix(1.37113E-15 0.0517711 -0.0517711 1.37113E-15 11.5336 29.2303)" width="21.61" height="79.69"/>
    <path class="fil2" d="M45.93 5.07c1.39,0.73 -14.23,25.33 -14.23,25.33l-24.75 -15.2c0,0 7.21,-10.91 17.93,-13.06 10.72,-2.14 17.35,0.98 21.05,2.93z"/>
    <polygon class="fil3" points="16.2,20.69 34.63,32.21 35.04,31.58 "/>
    <rect class="fil1" x="31.51" y="5.13" width="1.12" height="4.13"/>
    <rect class="fil1" transform="matrix(-0.0448305 -0.0258934 0.0258934 -0.0448306 42.8202 12.2861)" width="21.64" height="79.69"/>
    <rect class="fil1" transform="matrix(-0.0258855 -0.0448351 0.0448351 -0.0258855 50.1274 20.0076)" width="21.61" height="79.69"/>
    <rect class="fil1" transform="matrix(1.37113E-15 -0.0517711 0.0517711 1.37113E-15 52.603 30.3509)" width="21.61" height="79.69"/>
    <rect class="fil1" transform="matrix(0.0258855 -0.0448351 0.0448351 0.0258855 49.5731 40.5492)" width="21.61" height="79.69"/>
    <rect class="fil1" transform="matrix(0.0258855 0.0448351 -0.0448351 0.0258855 14.0111 39.5738)" width="21.61" height="79.69"/>
    <rect class="fil1" transform="matrix(-0.0258855 0.0448351 -0.0448351 -0.0258855 14.5637 19.0362)" width="21.61" height="79.69"/>
    <rect class="fil1" transform="matrix(-0.0448351 0.0258855 -0.0258855 -0.0448351 22.2863 11.7265)" width="21.64" height="79.69"/>
    <polygon class="fil4" points="42.9,10.54 30.31,32.38 30.99,32.85 "/>
    <path class="fil1" d="M30.78 29.95c0,-0.69 0.55,-1.25 1.24,-1.25 0.69,0 1.24,0.56 1.24,1.25 0,0.68 -0.55,1.24 -1.24,1.24 -0.69,0 -1.24,-0.56 -1.24,-1.24z"/>
    <path class="fil5" d="M32.07 0c-16.45,0 -29.79,13.34 -29.79,29.79 0,16.45 13.34,29.79 29.79,29.79 16.45,0 29.79,-13.34 29.79,-29.79 0,-16.45 -13.34,-29.79 -29.79,-29.79zm0 57.68c-15.4,0 -27.89,-12.49 -27.89,-27.89 0,-15.4 12.49,-27.89 27.89,-27.89 15.4,0 27.89,12.49 27.89,27.89 0,15.4 -12.49,27.89 -27.89,27.89z"/>
   </g>
   <path class="fil6" d="M163.1 155.3c0,0.29 -0.11,0.54 -0.3,0.72 -0.18,0.19 -0.44,0.3 -0.72,0.3l-161.06 0c-0.56,0 -1.02,-0.45 -1.02,-1.02 0,-0.28 0.11,-0.53 0.3,-0.72 0.18,-0.18 0.44,-0.3 0.72,-0.3l161.06 0c0.56,0 1.02,0.46 1.02,1.02z"/>
   <path class="fil7" d="M101.7 43.44l0 103.43c0,2.21 -1.79,4.01 -4,4.01l-66.81 0c-2.21,0 -4,-1.8 -4,-4.01l0 -103.43c0,-2.22 1.79,-4.01 4,-4.01l66.81 0c2.21,0 4,1.79 4,4.01z"/>
   <path class="fil8" d="M87.95 37.18l0.54 2.25 9.21 0c2.21,0 4,1.79 4,4.01l0 103.43c0,2.21 -1.79,4.01 -4,4.01l-66.81 0c-2.21,0 -4,-1.8 -4,-4.01l0 -103.43c0,-2.22 1.79,-4.01 4,-4.01l10.71 0 0.7 -2.25 45.65 0zm11.62 -1.16l-70.55 0c-2.65,0 -4.81,2.16 -4.81,4.81l0 108.65c0,2.65 2.16,4.8 4.81,4.8l70.55 0c2.65,0 4.81,-2.15 4.81,-4.8l0 -108.65c0,-2.65 -2.16,-4.81 -4.81,-4.81z"/>
   <path class="fil9" d="M88.49 38.25l0 2.31 -46.89 0 0 -2.31c0,-0.38 0.07,-0.75 0.2,-1.1 0.45,-1.21 1.62,-2.08 2.99,-2.08l40.52 0c1.37,0 2.54,0.87 2.98,2.08 0.13,0.35 0.2,0.72 0.2,1.1z"/>
   <path class="fil9" d="M65.05 37.48c-1.6,0 -2.9,-1.3 -2.9,-2.9 0,-1.6 1.3,-2.89 2.9,-2.89 1.6,0 2.89,1.29 2.89,2.89 0,1.6 -1.29,2.9 -2.89,2.9zm0 -8.88c-3.3,0 -5.98,2.68 -5.98,5.98 0,3.3 2.68,5.98 5.98,5.98 3.3,0 5.98,-2.68 5.98,-5.98 0,-3.3 -2.68,-5.98 -5.98,-5.98z"/>
   <polygon class="fil10" points="31.84,53.94 96.75,53.94 96.75,45.65 31.84,45.65 "/>
   <polygon class="fil7" points="58.6,50.99 60.18,50.99 60.18,51.78 57.66,51.78 57.66,47.82 58.6,47.82 "/>
   <path class="fil7" d="M62.11 48.51c-0.49,0 -0.73,0.43 -0.73,1.29 0,0.85 0.24,1.28 0.73,1.28 0.47,0 0.7,-0.43 0.7,-1.28 0,-0.86 -0.23,-1.29 -0.7,-1.29zm-0.03 3.33c-0.53,0 -0.95,-0.2 -1.24,-0.6 -0.29,-0.4 -0.44,-0.89 -0.44,-1.46 0,-0.57 0.15,-1.06 0.45,-1.44 0.29,-0.39 0.71,-0.58 1.26,-0.58 0.55,0 0.97,0.2 1.25,0.62 0.28,0.41 0.42,0.88 0.42,1.41 0,0.58 -0.14,1.06 -0.43,1.46 -0.29,0.39 -0.71,0.59 -1.27,0.59z"/>
   <path class="fil7" d="M65.16 50.23l0.84 0 -0.42 -1.39 -0.42 1.39zm1.06 -2.41l1.24 3.96 -1 0 -0.24 -0.82 -1.28 0 -0.25 0.82 -0.82 0 1.27 -3.96 1.08 0z"/>
   <path class="fil7" d="M70.93 47.82l0 3.96 -0.79 0 -1.55 -2.68c0,0.07 0,0.11 0,0.14 0.01,0.06 0.02,0.12 0.02,0.17l0 2.37 -0.73 0 0 -3.96 1 0 1.35 2.33c-0.01,-0.11 -0.02,-0.2 -0.02,-0.26l0 -2.07 0.72 0z"/>
   <polygon class="fil11" points="31.84,59.07 96.75,59.07 96.75,58.05 31.84,58.05 "/>
   <polygon class="fil11" points="31.84,63.68 96.75,63.68 96.75,62.66 31.84,62.66 "/>
   <polygon class="fil11" points="31.84,68.29 96.75,68.29 96.75,67.27 31.84,67.27 "/>
   <polygon class="fil11" points="31.84,72.91 76.13,72.91 76.13,71.89 31.84,71.89 "/>
   <polygon class="fil11" points="31.84,68.29 96.75,68.29 96.75,67.27 31.84,67.27 "/>
   <polygon class="fil11" points="31.84,72.91 96.75,72.91 96.75,71.89 31.84,71.89 "/>
   <polygon class="fil11" points="31.84,77.52 96.75,77.52 96.75,76.5 31.84,76.5 "/>
   <polygon class="fil11" points="31.84,82.13 76.13,82.13 76.13,81.11 31.84,81.11 "/>
   <polygon class="fil10" points="31.84,89.09 65.31,89.09 65.31,88.07 31.84,88.07 "/>
   <polygon class="fil11" points="31.84,93.7 96.75,93.7 96.75,92.68 31.84,92.68 "/>
   <polygon class="fil11" points="31.84,98.32 96.75,98.32 96.75,97.3 31.84,97.3 "/>
   <polygon class="fil11" points="31.84,102.93 80.42,102.93 80.42,101.91 31.84,101.91 "/>
   <polygon class="fil10" points="31.84,108.91 88.93,108.91 88.93,107.89 31.84,107.89 "/>
   <polygon class="fil11" points="31.84,113.52 96.75,113.52 96.75,112.5 31.84,112.5 "/>
   <polygon class="fil11" points="31.84,118.13 96.75,118.13 96.75,117.11 31.84,117.11 "/>
   <polygon class="fil11" points="31.84,122.75 67.66,122.75 67.66,121.73 31.84,121.73 "/>
   <polygon class="fil10" points="31.84,128.72 77.63,128.72 77.63,127.71 31.84,127.71 "/>
   <polygon class="fil11" points="31.84,133.34 96.75,133.34 96.75,132.32 31.84,132.32 "/>
   <polygon class="fil11" points="31.84,137.95 96.75,137.95 96.75,136.93 31.84,136.93 "/>
   <polygon class="fil11" points="31.84,142.56 87.02,142.56 87.02,141.54 31.84,141.54 "/>
   <path class="fil9" d="M72.44 125.68c-0.03,5.03 -1.41,10.51 -3.3,15.16 -1.36,3.37 -3.52,7.12 -6.77,8.93 -3.66,2.05 -7.83,2.9 -11.94,3.48 -5.71,0.81 -11.55,1.01 -17.35,1.03l-0.01 0c-2.37,0.01 -4.73,-0.02 -7.07,-0.04 -6.13,-0.08 -11.54,-1.97 -15.24,-7.07 -5.43,-7.48 -8.38,-17.22 -6.81,-26.52 1.61,-9.56 8.64,-16.93 15.25,-23.5 1.94,-1.92 5.01,-3.99 6.65,-5.02 1.37,-0.86 5.22,-2.8 5.76,-2.8l11.86 -0.14c0.16,0 0.54,0.4 0.66,0.5 4.88,3.84 13.01,8.3 17.22,12.86 6.08,6.6 11.14,13.77 11.09,23.13z"/>
   <path class="fil12" d="M72.44 125.68c-0.03,5.03 -1.41,10.51 -3.3,15.16 -1.36,3.37 -3.52,7.12 -6.77,8.93 -3.66,2.05 -7.83,2.9 -11.94,3.48 -5.71,0.81 -11.55,1.01 -17.35,1.03 65.81,-12.04 10.39,-65.09 10.39,-65.09 0.16,0 0.54,0.4 0.66,0.5 4.88,3.84 13.01,8.3 17.22,12.86 6.08,6.6 11.14,13.77 11.09,23.13z"/>
   <path class="fil9" d="M48.16 74.69c-0.31,1.66 -4.55,9.65 -4.91,9.88 -0.13,0.09 -0.66,0.39 -1.32,0.76 -0.19,0.11 -0.38,0.21 -0.57,0.32 -1.14,0.63 -2.44,1.31 -2.85,1.41 -0.72,0.17 -6.98,-0.65 -6.98,-0.65l-5.37 -12.54c0,0 -0.54,-3.14 1.44,-2.25 1.99,0.89 5.96,2.01 7.4,0.41 1.44,-1.59 4.55,-2.54 5.9,-0.17 1.36,2.36 1.45,3.07 3.25,1.83 0.44,-0.3 0.93,-0.5 1.4,-0.59 0.05,-0.01 0.09,-0.02 0.14,-0.03l0.01 0c0.14,-0.02 0.28,-0.04 0.41,-0.04 0.12,-0.01 0.23,0 0.34,0 1.08,0.07 1.9,0.68 1.71,1.66z"/>
   <path class="fil12" d="M48.16 74.69c-0.31,1.66 -4.55,9.65 -4.91,9.88 -0.13,0.09 -0.66,0.39 -1.32,0.76 -0.58,0.03 -1.19,0.11 -1.66,0.32 2.46,-3.02 7.64,-9.98 5.28,-12.55l-0.02 -0.03 0.01 0c0.2,-0.03 0.39,-0.04 0.57,-0.04 0.12,-0.01 0.23,0 0.34,0 1.08,0.07 1.9,0.68 1.71,1.66z"/>
   <path class="fil13" d="M31.03 86.41l0 3.07 8.16 0c0,0 -0.27,5.56 -1.08,6.63l1.08 1.59c0,0 1.67,-5.44 1.4,-7.63 0,0 5.05,5.98 4.78,10.89l1.89 0c0,0 -2.57,-8.46 -5.45,-11.42l1.66 -0.35 0 -2.49 -2.25 -0.29c0,0 2.21,-1.19 2.03,-1.84 -0.18,-0.65 -0.72,-1.18 -1.85,-0.65 -1.13,0.53 -5.91,2.6 -10.37,2.49z"/>
   <path class="fil8" d="M121.54 26.31l-43.31 0c-1.16,0 -2.1,0.94 -2.1,2.1l0 38.64c0,1.16 0.94,2.1 2.1,2.1l43.31 0c1.16,0 2.1,-0.94 2.1,-2.1l0 -38.64c0,-1.16 -0.94,-2.1 -2.1,-2.1z"/>
   <polygon class="fil7" points="77.71,67.57 122.07,67.57 122.07,34.98 77.71,34.98 "/>
   <polygon class="fil11" points="79.81,41.94 84.67,41.94 84.67,37.08 79.81,37.08 "/>
   <polygon class="fil11" points="85.69,41.94 90.56,41.94 90.56,37.08 85.69,37.08 "/>
   <polygon class="fil10" points="91.57,41.94 96.44,41.94 96.44,37.08 91.57,37.08 "/>
   <polygon class="fil10" points="97.45,41.94 102.32,41.94 102.32,37.08 97.45,37.08 "/>
   <polygon class="fil10" points="103.33,41.94 108.2,41.94 108.2,37.08 103.33,37.08 "/>
   <polygon class="fil10" points="109.22,41.94 114.09,41.94 114.09,37.08 109.22,37.08 "/>
   <polygon class="fil10" points="115.1,41.94 119.97,41.94 119.97,37.08 115.1,37.08 "/>
   <polygon class="fil10" points="79.81,47.83 84.67,47.83 84.67,42.96 79.81,42.96 "/>
   <polygon class="fil10" points="85.69,47.83 90.56,47.83 90.56,42.96 85.69,42.96 "/>
   <polygon class="fil10" points="91.57,47.83 96.44,47.83 96.44,42.96 91.57,42.96 "/>
   <polygon class="fil10" points="97.45,47.83 102.32,47.83 102.32,42.96 97.45,42.96 "/>
   <polygon class="fil9" points="103.33,47.83 108.2,47.83 108.2,42.96 103.33,42.96 "/>
   <polygon class="fil10" points="109.22,47.83 114.09,47.83 114.09,42.96 109.22,42.96 "/>
   <polygon class="fil10" points="115.1,47.83 119.97,47.83 119.97,42.96 115.1,42.96 "/>
   <polygon class="fil10" points="79.81,53.71 84.67,53.71 84.67,48.84 79.81,48.84 "/>
   <polygon class="fil10" points="85.69,53.71 90.56,53.71 90.56,48.84 85.69,48.84 "/>
   <polygon class="fil10" points="91.57,53.71 96.44,53.71 96.44,48.84 91.57,48.84 "/>
   <polygon class="fil10" points="97.45,53.71 102.32,53.71 102.32,48.84 97.45,48.84 "/>
   <polygon class="fil10" points="103.33,53.71 108.2,53.71 108.2,48.84 103.33,48.84 "/>
   <polygon class="fil10" points="109.22,53.71 114.09,53.71 114.09,48.84 109.22,48.84 "/>
   <polygon class="fil10" points="115.1,53.71 119.97,53.71 119.97,48.84 115.1,48.84 "/>
   <polygon class="fil10" points="79.81,59.59 84.67,59.59 84.67,54.72 79.81,54.72 "/>
   <polygon class="fil10" points="85.69,59.59 90.56,59.59 90.56,54.72 85.69,54.72 "/>
   <polygon class="fil10" points="91.57,59.59 96.44,59.59 96.44,54.72 91.57,54.72 "/>
   <polygon class="fil10" points="97.45,59.59 102.32,59.59 102.32,54.72 97.45,54.72 "/>
   <polygon class="fil10" points="103.33,59.59 108.2,59.59 108.2,54.72 103.33,54.72 "/>
   <polygon class="fil10" points="109.22,59.59 114.09,59.59 114.09,54.72 109.22,54.72 "/>
   <polygon class="fil10" points="115.1,59.59 119.97,59.59 119.97,54.72 115.1,54.72 "/>
   <polygon class="fil10" points="79.81,65.47 84.67,65.47 84.67,60.61 79.81,60.61 "/>
   <polygon class="fil10" points="85.69,65.47 90.56,65.47 90.56,60.61 85.69,60.61 "/>
   <polygon class="fil10" points="91.57,65.47 96.44,65.47 96.44,60.61 91.57,60.61 "/>
   <polygon class="fil10" points="97.45,65.47 102.32,65.47 102.32,60.61 97.45,60.61 "/>
   <polygon class="fil10" points="103.33,65.47 108.2,65.47 108.2,60.61 103.33,60.61 "/>
   <polygon class="fil11" points="109.22,65.47 114.09,65.47 114.09,60.61 109.22,60.61 "/>
   <polygon class="fil11" points="115.1,65.47 119.97,65.47 119.97,60.61 115.1,60.61 "/>
   <path class="fil13" d="M84.44 29.01c0,0.79 -0.65,1.43 -1.44,1.43 -0.79,0 -1.43,-0.64 -1.43,-1.43 0,-0.8 0.64,-1.44 1.43,-1.44 0.79,0 1.44,0.64 1.44,1.44z"/>
   <path class="fil13" d="M91.19 29.01c0,0.79 -0.64,1.43 -1.43,1.43 -0.8,0 -1.44,-0.64 -1.44,-1.43 0,-0.8 0.64,-1.44 1.44,-1.44 0.79,0 1.43,0.64 1.43,1.44z"/>
   <path class="fil13" d="M97.94 29.01c0,0.79 -0.64,1.43 -1.43,1.43 -0.79,0 -1.44,-0.64 -1.44,-1.43 0,-0.8 0.65,-1.44 1.44,-1.44 0.79,0 1.43,0.64 1.43,1.44z"/>
   <path class="fil13" d="M104.7 29.01c0,0.79 -0.64,1.43 -1.44,1.43 -0.79,0 -1.43,-0.64 -1.43,-1.43 0,-0.8 0.64,-1.44 1.43,-1.44 0.8,0 1.44,0.64 1.44,1.44z"/>
   <path class="fil13" d="M111.45 29.01c0,0.79 -0.64,1.43 -1.43,1.43 -0.79,0 -1.44,-0.64 -1.44,-1.43 0,-0.8 0.65,-1.44 1.44,-1.44 0.79,0 1.43,0.64 1.43,1.44z"/>
   <path class="fil13" d="M118.21 29.01c0,0.79 -0.64,1.43 -1.44,1.43 -0.79,0 -1.43,-0.64 -1.43,-1.43 0,-0.8 0.64,-1.44 1.43,-1.44 0.8,0 1.44,0.64 1.44,1.44z"/>
   <path class="fil10" d="M83 24.4c-0.6,0 -1.09,0.49 -1.09,1.1l0 3.06c0,0.6 0.49,1.09 1.09,1.09 0.6,0 1.09,-0.49 1.09,-1.09l0 -3.06c0,-0.61 -0.49,-1.1 -1.09,-1.1z"/>
   <path class="fil10" d="M89.76 24.4c-0.61,0 -1.1,0.49 -1.1,1.1l0 3.06c0,0.6 0.49,1.09 1.1,1.09 0.6,0 1.09,-0.49 1.09,-1.09l0 -3.06c0,-0.61 -0.49,-1.1 -1.09,-1.1z"/>
   <path class="fil10" d="M96.51 24.4c-0.6,0 -1.09,0.49 -1.09,1.1l0 3.06c0,0.6 0.49,1.09 1.09,1.09 0.6,0 1.09,-0.49 1.09,-1.09l0 -3.06c0,-0.61 -0.49,-1.1 -1.09,-1.1z"/>
   <path class="fil10" d="M103.26 24.4c-0.6,0 -1.09,0.49 -1.09,1.1l0 3.06c0,0.6 0.49,1.09 1.09,1.09 0.61,0 1.1,-0.49 1.1,-1.09l0 -3.06c0,-0.61 -0.49,-1.1 -1.1,-1.1z"/>
   <path class="fil10" d="M110.02 24.4c-0.61,0 -1.09,0.49 -1.09,1.1l0 3.06c0,0.6 0.48,1.09 1.09,1.09 0.6,0 1.09,-0.49 1.09,-1.09l0 -3.06c0,-0.61 -0.49,-1.1 -1.09,-1.1z"/>
   <path class="fil10" d="M116.77 24.4c-0.6,0 -1.09,0.49 -1.09,1.1l0 3.06c0,0.6 0.49,1.09 1.09,1.09 0.61,0 1.1,-0.49 1.1,-1.09l0 -3.06c0,-0.61 -0.49,-1.1 -1.1,-1.1z"/>
   <polygon class="fil13" points="101.7,71.14 104.38,71.14 104.38,69.15 101.7,69.15 "/>
   <path class="fil14" d="M130.79 154.22l-9.66 0.06c0.01,-0.33 0.07,-0.64 0.27,-0.9 0.22,-0.3 0.59,-0.46 0.96,-0.52 0.37,-0.07 0.75,-0.06 1.12,-0.08 0.92,-0.05 1.82,-0.32 2.62,-0.77 0.41,-0.24 0.8,-0.53 1.25,-0.7l2.63 0.05c0.37,0.39 0.6,0.89 0.72,1.42 0.1,0.47 0.12,0.95 0.09,1.44z"/>
   <path class="fil14" d="M152.21 154.23l-9.66 0.05c0.01,-0.33 0.07,-0.64 0.27,-0.9 0.23,-0.3 0.6,-0.46 0.97,-0.52 0.36,-0.07 0.74,-0.05 1.12,-0.07 0.91,-0.05 1.82,-0.32 2.61,-0.78 0.42,-0.23 0.81,-0.52 1.26,-0.69l2.63 0.05c0.36,0.39 0.6,0.9 0.71,1.42 0.11,0.47 0.12,0.96 0.09,1.44z"/>
   <path class="fil15" d="M151.05 103.01l-9.44 -1.75 0 0.01c-0.02,0.49 -11.13,-2.8 -11.31,-0.21l-2.24 18.37c-0.18,1.46 -0.29,2.93 -0.33,4.39l-0.83 27.65 3.37 -0.02 9.81 -39.25 8.23 39.15 3.36 0.03 -0.62 -48.37z"/>
   <path class="fil16" d="M103.76 84.63l2.04 -0.04 -0.16 2.14 -2.02 -0.31c-0.52,-0.07 -0.89,-0.49 -0.86,-0.97 0.04,-0.47 0.48,-0.83 1,-0.82z"/>
   <path class="fil8" d="M105.6 86.87l0.1 -2.5c2.79,-0.06 5.56,-0.16 8.21,-0.55 1.31,-0.2 2.6,-0.48 3.81,-0.87 1.21,-0.4 2.36,-0.89 3.42,-1.52 2.13,-1.26 3.95,-3.01 5.6,-5.01 0.81,-1 1.58,-2.07 2.33,-3.17l0.54 -0.84 0.54 -0.85 0.26 -0.42 0.26 -0.44 0.52 -0.86c0.03,-0.05 0.05,-0.09 0.08,-0.13 0.23,-0.36 0.53,-0.65 0.88,-0.88 0.34,-0.22 0.72,-0.39 1.13,-0.47 0.81,-0.17 1.7,-0.05 2.47,0.42l0.01 0.01c0.79,0.49 1.29,1.26 1.46,2.12 0.17,0.85 -0.03,1.78 -0.59,2.56l-0.67 0.87 -0.34 0.44 -0.35 0.43c-0.23,0.29 -0.46,0.57 -0.69,0.86l-0.72 0.85c-0.97,1.12 -1.99,2.22 -3.08,3.27 -1.09,1.05 -2.27,2.05 -3.54,2.95 -1.26,0.9 -2.63,1.7 -4.08,2.33 -1.44,0.63 -2.95,1.08 -4.46,1.37 -1.51,0.3 -3.01,0.43 -4.49,0.48 -1.47,0.04 -2.92,0 -4.36,-0.09 -1.43,-0.09 -2.85,-0.22 -4.25,-0.36z"/>
   <path class="fil7" d="M111.62 83.96c-2.03,0.19 -4.08,0.25 -5.92,0.29l-0.12 0 -0.06 1.33c0.05,-0.02 0.09,-0.04 0.13,-0.05l0.05 -1.16c1.99,-0.04 3.98,-0.1 5.92,-0.28l0 -0.13zm2.29 -0.14c1.31,-0.2 2.6,-0.48 3.81,-0.87 1.21,-0.4 2.36,-0.89 3.42,-1.52 0.54,-0.33 1.07,-0.68 1.58,-1.06l-0.1 -0.09c-0.51,0.39 -1.02,0.73 -1.55,1.04 -1.01,0.6 -2.15,1.11 -3.39,1.51 -1.15,0.37 -2.39,0.65 -3.79,0.86 -0.36,0.06 -0.73,0.11 -1.1,0.15l-0.02 0.13c0.38,-0.05 0.76,-0.1 1.14,-0.15zm3.8 3.19c-1.18,0.18 -2.34,0.27 -3.5,0.31 -1.47,0.04 -2.92,0 -4.36,-0.09 -0.58,-0.04 -1.16,-0.08 -1.73,-0.12l-0.11 0.11c0.65,0.06 1.25,0.1 1.84,0.13 1.65,0.1 3.04,0.13 4.37,0.09 1.24,-0.04 2.4,-0.14 3.49,-0.3 0,-0.04 0,-0.08 0,-0.13zm9.61 -3.77c1.18,-0.84 2.34,-1.8 3.55,-2.96 0.99,-0.95 2,-2.03 3.08,-3.28l0.72 -0.85 0 0 -0.08 -0.1 -0.01 0.02 -0.72 0.85c-0.97,1.12 -1.99,2.22 -3.08,3.27 -1.09,1.05 -2.27,2.05 -3.54,2.95 -0.48,0.35 -0.98,0.67 -1.49,0.98l0.05 0.12c0.51,-0.31 1.02,-0.64 1.52,-1zm9.41 -9.69c0.57,-0.79 0.79,-1.76 0.61,-2.66 -0.09,-0.46 -0.27,-0.89 -0.53,-1.27 -0.26,-0.38 -0.59,-0.69 -0.99,-0.94l-0.01 0c-0.6,-0.37 -1.29,-0.55 -1.98,-0.52l0.02 0.13c0.64,-0.03 1.31,0.13 1.9,0.49l0.01 0.01c0.79,0.49 1.29,1.26 1.45,2.12 0.18,0.85 -0.02,1.78 -0.58,2.56l-0.31 0.4 0.14 0.02 0.27 -0.34zm-8.26 0.56l-0.09 -0.08c-0.56,0.8 -1.1,1.52 -1.63,2.17l0.09 0.1c0.56,-0.7 1.11,-1.44 1.63,-2.19zm1.68 -2.55l0.26 -0.42 0.26 -0.44 0.52 -0.86c0.03,-0.05 0.05,-0.09 0.08,-0.13 0.23,-0.36 0.53,-0.65 0.88,-0.88 0.12,-0.07 0.24,-0.14 0.37,-0.21l-0.03 -0.12c-0.14,0.06 -0.27,0.14 -0.41,0.23 -0.37,0.24 -0.68,0.55 -0.92,0.91 -0.02,0.05 -0.05,0.09 -0.08,0.13l-0.77 1.3 -0.27 0.43 -0.1 0.16 0.09 0.1 0.12 -0.2z"/>
   <path class="fil8" d="M151.05 103.01c-6.89,2.21 -12.79,2.19 -20.56,-1.64l0.3 -20.86 0.04 -2.68 0.02 -0.98 0.03 -1.9c0,-0.26 0.02,-0.53 0.05,-0.78 0.32,-3.17 2.4,-5.77 5.2,-6.9 0.27,-0.11 0.55,-0.21 0.84,-0.29 0.97,-0.28 2.02,-0.38 3.09,-0.28 0.28,0.03 0.56,0.07 0.84,0.12 0.59,0.11 1.17,0.26 1.73,0.47 3.13,1.15 5.53,3.78 6.38,7.02 0.21,0.77 0.32,1.59 0.34,2.42l0.01 0.26 0.01 0.99 0.03 1.24 1.65 23.79z"/>
   <path class="fil17" d="M136.29 62.23l0.73 6.21c1.46,0.72 2.8,0.56 4.05,-0.47l-0.73 -6.22 -4.05 0.48z"/>
   <path class="fil16" d="M136.29 62.23l0.33 2.81c0.3,0.08 0.61,0.11 0.93,0.1 0.11,0 0.21,-0.01 0.31,-0.02 1.11,-0.13 2.1,-0.77 2.67,-1.7l-0.19 -1.67 -4.05 0.48z"/>
   <path class="fil17" d="M134 58.65l0.41 2.58 0.16 1.05c0.23,1.45 1.5,2.5 2.97,2.45 0.48,-0.01 0.95,-0.14 1.37,-0.35 0.09,-0.05 0.18,-0.1 0.28,-0.16 0.05,-0.03 0.11,-0.07 0.16,-0.11 0.52,-0.38 0.92,-0.91 1.14,-1.54 0.18,-0.53 0.35,-1.11 0.5,-1.72 0.08,-0.35 0.16,-0.71 0.24,-1.07 0.35,-1.61 -0.19,-3.3 -1.46,-4.34 -1.07,-0.9 -2.32,-1.07 -3.74,-0.46 -1.44,0.61 -2.27,2.13 -2.03,3.67z"/>
   <path class="fil18" d="M139.26 59.68l-0.46 -0.23c0,0 0.79,-1.88 0.46,-2.49 -0.46,-0.87 -2.73,-0.98 -3.86,-0.66 -0.36,0.1 -0.63,0.24 -0.75,0.59 -0.27,0.76 -0.57,2.24 -0.34,3.69 0,0 -1.68,-4.36 -0.32,-6.72 0.89,-1.55 1.7,-2.64 3.75,-1.76 3.25,1.4 5.03,3.97 4.52,7.79l-2.13 -0.78 -0.87 0.57z"/>
   <path class="fil17" d="M139.23 59.95c0.09,0.74 0.84,1.27 1.68,1.17 0.83,-0.1 1.44,-0.78 1.35,-1.53 -0.08,-0.74 -0.83,-1.27 -1.67,-1.17 -0.84,0.1 -1.45,0.78 -1.36,1.53z"/>
   <path class="fil10" d="M130.31 101.47l0.1 0.05c2.18,1.07 4.23,1.86 6.21,2.38 1.99,0.52 3.92,0.77 5.86,0.77 2.51,0 5.05,-0.41 7.96,-1.29l-0.05 -0.17c-6.61,2.01 -12.38,1.87 -19.9,-1.84l0.04 -3.46 -0.16 0 -0.06 3.56zm0.36 -24.33l0.17 0 0.01 -0.29 0.03 -1.9c0,-0.26 0.02,-0.53 0.05,-0.78 0.29,-2.87 2.03,-5.28 4.44,-6.55l-0.06 -0.16c-2.53,1.31 -4.26,3.81 -4.55,6.69 -0.03,0.26 -0.05,0.53 -0.05,0.8l-0.04 2.19zm18.99 3.37l-0.17 0.04 1.28 18.39 0.17 0 -1.28 -18.43zm-5.26 -12.36c2.26,1.36 3.93,3.56 4.61,6.16 0.02,0.08 0.05,0.15 0.06,0.23l0.17 -0.03c-0.02,-0.08 -0.04,-0.16 -0.06,-0.24 -0.7,-2.64 -2.4,-4.88 -4.69,-6.27l-0.09 0.15zm-13.99 26.26l0.18 0 0.2 -13.9 0 -0.14 -0.17 0.04 -0.01 0.1 -0.2 13.9z"/>
   <path class="fil9" d="M139.17 69.95c-0.38,-0.09 -0.76,-0.18 -1.13,-0.26 -1.93,7.89 -2.74,16.24 -2.29,24.76 0.6,0.82 1.21,1.63 1.84,2.41 0.46,-0.87 0.93,-1.73 1.42,-2.58 -1.14,-8.19 -1.06,-16.38 0.16,-24.33z"/>
   <path class="fil10" d="M142.63 67.29l-2.95 4.83 -1.08 -2.3 -2.28 1.98 -0.19 -4.53c0.27,-0.11 0.44,-0.17 0.73,-0.25l1.79 1.76 2.28 -1.95c0.6,0.1 1.14,0.25 1.7,0.46z"/>
   <path class="fil8" d="M145.91 113.26l7.17 0 0 -3.79c0,-1.97 -1.61,-3.58 -3.59,-3.58 -1.97,0 -3.58,1.61 -3.58,3.58l0 3.79zm7.43 1.39l-7.7 0c-0.62,0 -1.12,-0.51 -1.12,-1.12l0 -4.06c0,-2.74 2.23,-4.97 4.97,-4.97 2.74,0 4.97,2.23 4.97,4.97l0 4.06c0,0.61 -0.5,1.12 -1.12,1.12z"/>
   <path class="fil8" d="M158.74 109.73l-18.5 0c-0.99,0 -1.79,0.8 -1.79,1.79l0 11.57c0,0.99 0.8,1.79 1.79,1.79l18.5 0c0.99,0 1.8,-0.8 1.8,-1.79l0 -11.57c0,-0.99 -0.81,-1.79 -1.8,-1.79z"/>
   <path class="fil13" d="M158.88 118.05l-9.39 -1.76 -9.39 1.76c-0.88,0.08 -1.65,-0.62 -1.65,-1.51l0 -5.51 22.09 0 0 5.51c0,0.89 -0.77,1.59 -1.66,1.51z"/>
   <path class="fil8" d="M138.45 109.73l0 5.51c0,0.89 0.77,1.59 1.65,1.51l9.39 -0.89 9.39 0.89c0.89,0.08 1.66,-0.62 1.66,-1.51l0 -5.51 -22.09 0z"/>
   <path class="fil12" d="M147.71 113.95l0 3.17c0,0.51 0.42,0.93 0.94,0.93l1.68 0c0.52,0 0.94,-0.42 0.94,-0.93l0 -3.17 -3.56 0z"/>
   <path class="fil9" d="M149.49 116.06c-0.4,0 -0.72,0.33 -0.72,0.73l0 1.96c0,0.4 0.32,0.73 0.72,0.73 0.4,0 0.72,-0.33 0.72,-0.73l0 -1.96c0,-0.4 -0.32,-0.73 -0.72,-0.73z"/>
   <polygon class="fil9" points="143.41,109.73 146.88,109.73 146.88,108.71 143.41,108.71 "/>
   <polygon class="fil9" points="152.04,109.73 155.5,109.73 155.5,108.71 152.04,108.71 "/>
   <path class="fil19" d="M148.62 105.3l0.61 -1.95 1.98 0.82 -0.93 1.82c-0.22,0.47 -0.74,0.7 -1.18,0.51 -0.44,-0.18 -0.65,-0.71 -0.48,-1.2z"/>
   <path class="fil8" d="M151.33 104.25l-2.35 -0.87c0.82,-2.67 1.59,-5.34 2.04,-7.97 0.22,-1.32 0.35,-2.62 0.36,-3.9 0,-1.27 -0.12,-2.51 -0.38,-3.72 -0.53,-2.41 -1.62,-4.7 -3.02,-6.88 -0.7,-1.09 -1.47,-2.15 -2.29,-3.2l-0.62 -0.78 -0.64 -0.77 -0.32 -0.39 -0.33 -0.38 -0.67 -0.76c-0.03,-0.04 -0.06,-0.08 -0.09,-0.12 -0.27,-0.33 -0.46,-0.71 -0.56,-1.11 -0.11,-0.39 -0.15,-0.81 -0.1,-1.22 0.09,-0.82 0.48,-1.63 1.18,-2.21l0 -0.01c0.72,-0.6 1.61,-0.84 2.47,-0.72 0.87,0.1 1.69,0.58 2.25,1.35l0.62 0.91 0.31 0.46 0.3 0.46c0.2,0.31 0.4,0.62 0.6,0.93l0.58 0.95c0.77,1.27 1.5,2.58 2.16,3.94 0.65,1.37 1.24,2.79 1.7,4.28 0.46,1.49 0.79,3.04 0.94,4.61 0.15,1.56 0.1,3.14 -0.09,4.66 -0.19,1.53 -0.53,3 -0.94,4.41 -0.42,1.42 -0.92,2.78 -1.45,4.12 -0.52,1.33 -1.09,2.64 -1.66,3.93z"/>
   <path class="fil10" d="M150.44 97.63c-0.46,1.99 -1.04,3.95 -1.58,5.71l-0.03 0.11 1.25 0.47c0,-0.05 -0.01,-0.09 -0.01,-0.14l-1.09 -0.4c0.59,-1.91 1.15,-3.82 1.58,-5.72l-0.12 -0.03zm0.58 -2.22c0.22,-1.32 0.35,-2.62 0.36,-3.9 0,-1.27 -0.12,-2.51 -0.38,-3.72 -0.14,-0.62 -0.31,-1.23 -0.52,-1.83l-0.11 0.07c0.21,0.6 0.37,1.19 0.5,1.79 0.26,1.15 0.38,2.39 0.38,3.69 -0.01,1.21 -0.12,2.47 -0.36,3.88 -0.06,0.36 -0.13,0.72 -0.2,1.08l0.12 0.06c0.07,-0.37 0.14,-0.75 0.21,-1.12zm4.22 -2.62c-0.2,1.17 -0.48,2.31 -0.8,3.41 -0.42,1.42 -0.92,2.78 -1.45,4.12 -0.21,0.54 -0.43,1.08 -0.65,1.61l0.07 0.14c0.26,-0.6 0.48,-1.16 0.7,-1.7 0.61,-1.55 1.07,-2.86 1.45,-4.13 0.35,-1.2 0.61,-2.32 0.8,-3.42 -0.04,-0.01 -0.08,-0.02 -0.12,-0.03zm-0.59 -10.3c-0.43,-1.39 -0.99,-2.8 -1.71,-4.3 -0.6,-1.25 -1.31,-2.54 -2.16,-3.96l-0.58 -0.95 -0.01 0 -0.11 0.05 0.01 0.02 0.58 0.95c0.77,1.27 1.5,2.58 2.16,3.94 0.65,1.37 1.24,2.79 1.7,4.28 0.17,0.57 0.33,1.14 0.47,1.73l0.12 -0.02c-0.13,-0.58 -0.29,-1.16 -0.47,-1.74zm-6.29 -11.97c-0.57,-0.78 -1.42,-1.3 -2.33,-1.41 -0.47,-0.06 -0.93,-0.02 -1.37,0.11 -0.44,0.13 -0.84,0.35 -1.2,0.65l-0.01 0c-0.54,0.46 -0.92,1.06 -1.11,1.73l0.13 0.01c0.18,-0.61 0.53,-1.19 1.06,-1.64l0.01 -0.01c0.72,-0.6 1.61,-0.84 2.47,-0.72 0.87,0.1 1.69,0.58 2.25,1.35l0.28 0.41 0.07 -0.12 -0.25 -0.36zm-2.03 8.02l-0.11 0.06c0.59,0.79 1.1,1.52 1.56,2.23l0.12 -0.05c-0.49,-0.76 -1.02,-1.51 -1.57,-2.24zm-1.9 -2.38l-0.32 -0.39 -0.33 -0.38 -0.67 -0.76c-0.03,-0.04 -0.06,-0.08 -0.09,-0.12 -0.27,-0.33 -0.46,-0.71 -0.56,-1.11 -0.04,-0.13 -0.07,-0.27 -0.08,-0.41l-0.13 -0.02c0.02,0.16 0.05,0.31 0.09,0.47 0.11,0.42 0.31,0.81 0.58,1.15 0.03,0.04 0.07,0.08 0.1,0.12l0.99 1.14 0.32 0.38 0.13 0.15 0.12 -0.05 -0.15 -0.17z"/>
   <path class="fil14" d="M85.21 154.22l9.66 0.06c0,-0.33 -0.07,-0.64 -0.27,-0.9 -0.22,-0.3 -0.59,-0.46 -0.96,-0.52 -0.37,-0.07 -0.75,-0.06 -1.12,-0.08 -0.92,-0.05 -1.82,-0.32 -2.62,-0.77 -0.41,-0.24 -0.8,-0.53 -1.25,-0.7l-2.63 0.05c-0.37,0.39 -0.6,0.89 -0.72,1.42 -0.1,0.47 -0.12,0.95 -0.09,1.44z"/>
   <path class="fil14" d="M63.79 154.23l9.66 0.05c-0.01,-0.33 -0.07,-0.64 -0.27,-0.9 -0.23,-0.3 -0.6,-0.46 -0.97,-0.52 -0.36,-0.07 -0.74,-0.05 -1.12,-0.07 -0.91,-0.05 -1.82,-0.32 -2.61,-0.78 -0.42,-0.23 -0.81,-0.52 -1.26,-0.69l-2.63 0.05c-0.36,0.39 -0.6,0.9 -0.71,1.42 -0.11,0.47 -0.12,0.96 -0.09,1.44z"/>
   <path class="fil8" d="M64.95 103.01l9.44 -1.75 0 0.01c0.02,0.49 11.14,-2.8 11.31,-0.21l2.24 18.37c0.18,1.46 0.29,2.93 0.33,4.39l0.83 27.65 -3.37 -0.02 -9.81 -39.25 -8.23 39.15 -3.36 0.03 0.62 -48.37z"/>
   <path class="fil16" d="M99.38 99.26l-1.68 -1.18 -1.06 1.86 1.84 0.88c0.47,0.23 1.02,0.1 1.25,-0.32 0.24,-0.41 0.08,-0.96 -0.35,-1.24z"/>
   <path class="fil15" d="M96.59 100.08l1.33 -2.12c-2.28,-1.62 -4.52,-3.27 -6.48,-5.08 -0.97,-0.91 -1.88,-1.86 -2.66,-2.86 -0.78,-1.01 -1.44,-2.07 -1.97,-3.19 -1.05,-2.23 -1.58,-4.7 -1.81,-7.28 -0.11,-1.29 -0.15,-2.61 -0.14,-3.94l0.02 -1 0.03 -1 0.02 -0.5 0.03 -0.51 0.07 -1c0,-0.05 0,-0.1 0,-0.15 0.01,-0.43 -0.07,-0.84 -0.23,-1.22 -0.16,-0.38 -0.38,-0.73 -0.67,-1.03 -0.57,-0.6 -1.37,-1 -2.28,-1.04l-0.01 0c-0.93,-0.04 -1.78,0.32 -2.4,0.93 -0.62,0.61 -0.98,1.49 -0.95,2.45l0.06 1.1 0.03 0.55 0.05 0.55c0.03,0.37 0.05,0.73 0.09,1.1l0.11 1.11c0.17,1.47 0.39,2.95 0.7,4.44 0.32,1.48 0.72,2.97 1.27,4.43 0.54,1.45 1.22,2.88 2.06,4.22 0.84,1.33 1.84,2.55 2.92,3.64 1.08,1.09 2.25,2.05 3.44,2.92 1.19,0.87 2.42,1.65 3.65,2.38 1.24,0.74 2.48,1.43 3.72,2.1z"/>
   <path class="fil20" d="M93.18 94.39c1.5,1.24 3.11,2.41 4.74,3.57l-0.61 0.98c0.02,0.04 0.04,0.08 0.07,0.12l0.7 -1.14 -0.09 -0.07c-1.5,-1.06 -3.16,-2.26 -4.74,-3.56l-0.07 0.1zm-0.88 -0.74l0.05 -0.13c-0.28,-0.24 -0.55,-0.48 -0.82,-0.73 -1.04,-0.97 -1.91,-1.9 -2.65,-2.85 -0.8,-1.03 -1.45,-2.09 -1.95,-3.16 -0.26,-0.55 -0.49,-1.12 -0.7,-1.72l-0.13 0.01c0.21,0.6 0.44,1.19 0.71,1.76 0.53,1.12 1.19,2.18 1.97,3.19 0.78,1 1.69,1.95 2.66,2.86 0.28,0.26 0.57,0.51 0.86,0.77zm-5.87 -0.17c0.81,0.76 1.71,1.49 2.72,2.22 1.07,0.78 2.23,1.54 3.66,2.39 0.5,0.3 1.02,0.6 1.59,0.92l-0.02 -0.16c-0.51,-0.28 -1.01,-0.57 -1.51,-0.87 -1.23,-0.73 -2.46,-1.51 -3.65,-2.38 -0.93,-0.68 -1.85,-1.41 -2.72,-2.22 -0.02,0.04 -0.05,0.07 -0.07,0.1zm-5.05 -6.95l0.1 -0.06c-0.25,-0.55 -0.47,-1.1 -0.68,-1.65 -0.55,-1.46 -0.95,-2.95 -1.27,-4.43 -0.31,-1.49 -0.53,-2.97 -0.7,-4.44l-0.11 -1.11 0 -0.02 -0.13 0.03 0 0 0.12 1.11c0.19,1.65 0.42,3.1 0.7,4.45 0.35,1.63 0.76,3.09 1.27,4.45 0.21,0.57 0.45,1.13 0.7,1.67zm-2.99 -14.55l0.12 0.06 -0.02 -0.5c-0.03,-0.96 0.33,-1.84 0.95,-2.45 0.62,-0.61 1.47,-0.97 2.4,-0.93l0.01 0c0.7,0.03 1.33,0.28 1.85,0.66l0.09 -0.09c-0.56,-0.42 -1.23,-0.66 -1.94,-0.69l0 0c-0.47,-0.02 -0.92,0.05 -1.35,0.22 -0.43,0.16 -0.82,0.41 -1.15,0.74 -0.66,0.65 -1.02,1.58 -0.99,2.55l0.03 0.43zm6.6 7.41l0.12 -0.03c-0.07,-0.84 -0.11,-1.74 -0.12,-2.72l-0.13 0.02c0.02,0.92 0.05,1.83 0.13,2.73zm-0.08 -5.55l0.12 -0.03 0.01 -0.19 0.02 -0.51 0.09 -1.51c0,-0.05 0.01,-0.1 0.01,-0.15 0,-0.44 -0.08,-0.86 -0.25,-1.27 -0.06,-0.15 -0.13,-0.29 -0.21,-0.42l-0.09 0.09c0.07,0.12 0.13,0.25 0.19,0.38 0.16,0.38 0.24,0.79 0.23,1.22 0,0.05 0,0.1 0,0.15l-0.07 1 -0.03 0.51 -0.02 0.5 0 0.23z"/>
   <path class="fil15" d="M64.95 103.01c6.89,2.21 12.79,2.19 20.57,-1.64l-0.3 -20.86 -0.05 -2.68 -0.02 -0.98 -0.03 -1.9c0,-0.26 -0.02,-0.53 -0.04,-0.78 -0.33,-3.17 -2.41,-5.77 -5.21,-6.9 -0.27,-0.11 -0.55,-0.21 -0.84,-0.29 -0.97,-0.28 -2.01,-0.38 -3.09,-0.28 -0.28,0.03 -0.56,0.07 -0.84,0.12 -0.59,0.11 -1.17,0.26 -1.73,0.47 -3.13,1.15 -5.53,3.78 -6.38,7.02 -0.21,0.77 -0.32,1.59 -0.34,2.42l0 0.26 -0.02 0.99 -0.03 1.24 -1.65 23.79z"/>
   <path class="fil17" d="M79.14 61.97l-0.06 6.26c-1.37,0.86 -2.73,0.85 -4.08,-0.05l0.07 -6.26 4.07 0.05z"/>
   <path class="fil16" d="M79.14 61.97l-0.03 2.83c-0.28,0.11 -0.59,0.17 -0.91,0.2 -0.11,0 -0.21,0.01 -0.31,0.01 -1.12,-0.02 -2.17,-0.55 -2.84,-1.41l0.02 -1.68 4.07 0.05z"/>
   <path class="fil17" d="M81.04 58.16l-0.13 2.61 -0.05 1.06c-0.07,1.47 -1.23,2.65 -2.69,2.76 -0.49,0.03 -0.96,-0.04 -1.4,-0.21 -0.1,-0.03 -0.2,-0.08 -0.29,-0.13 -0.06,-0.03 -0.12,-0.06 -0.18,-0.09 -0.55,-0.32 -1.01,-0.8 -1.29,-1.41 -0.24,-0.51 -0.47,-1.07 -0.68,-1.66 -0.13,-0.34 -0.25,-0.68 -0.36,-1.04 -0.52,-1.56 -0.16,-3.3 0.99,-4.47 0.98,-1.01 2.2,-1.31 3.67,-0.85 1.5,0.45 2.49,1.87 2.41,3.43z"/>
   <path class="fil13" d="M73.75 59.19c-1.01,-3.2 0.62,-3.74 0.62,-3.74 -0.03,0.01 -0.05,-0.41 -0.04,-0.45 0.01,-0.16 0.06,-0.31 0.12,-0.45 0.49,-1.03 1.58,-0.88 2.52,-0.87 0.53,0.01 0.96,-0.14 1.34,-0.5 0.4,-0.38 0.65,-0.9 1.11,-1.22 0.7,-0.5 1.72,-0.16 2.19,0.49 0.11,0.16 0.2,0.33 0.25,0.52 0.27,0.97 0.15,2.18 -0.5,2.98 -0.58,0.73 -1.63,0.93 -2.51,1.04 -0.29,0.03 -0.58,0.06 -0.87,0.08 -1.51,0.12 -2.19,-1.13 -2.19,-1.13 0.34,0.34 0.5,1.44 0.2,2.14 -0.3,0.69 -0.01,1.93 -0.01,1.93l-0.11 -0.02c-0.68,-1.02 -1.43,-1.38 -2.12,-0.8z"/>
   <path class="fil13" d="M80.46 56.6c0,0 0.44,1.29 0.5,3.23 0,0 0.51,-2.14 0.04,-3.64l-0.54 0.41z"/>
   <path class="fil17" d="M75.98 60.01c-0.01,0.75 -0.7,1.35 -1.54,1.34 -0.85,-0.01 -1.53,-0.62 -1.52,-1.38 0.01,-0.75 0.7,-1.35 1.55,-1.34 0.84,0.01 1.52,0.63 1.51,1.38z"/>
   <path class="fil21" d="M85.64 97.91l-0.17 0 0.05 3.46c-7.53,3.71 -13.29,3.85 -19.91,1.84l-0.05 0.17c2.91,0.88 5.46,1.29 7.96,1.29 1.94,0 3.87,-0.25 5.86,-0.77 1.98,-0.52 4.03,-1.31 6.21,-2.38l0.1 -0.05 -0.05 -3.56zm-0.35 -22.96c0,-0.27 -0.02,-0.54 -0.04,-0.8 -0.3,-2.88 -2.02,-5.38 -4.56,-6.69l-0.06 0.16c2.41,1.27 4.15,3.68 4.45,6.55 0.02,0.25 0.04,0.52 0.04,0.78l0.03 1.9 0.01 0.29 0.17 0 -0.04 -2.19zm-20.23 23.99l0.17 0 1.28 -18.39 -0.17 -0.04 -1.28 18.43zm6.45 -30.94c-2.29,1.39 -3.99,3.63 -4.69,6.27 -0.02,0.08 -0.04,0.16 -0.06,0.24l0.17 0.03c0.02,-0.08 0.04,-0.15 0.06,-0.23 0.68,-2.6 2.36,-4.8 4.61,-6.16l-0.09 -0.15zm13.88 12.51l0 -0.1 -0.18 -0.04 0.01 0.14 0.2 13.9 0.17 0 -0.2 -13.9z"/>
   <path class="fil9" d="M76.83 69.95c0.38,-0.09 0.76,-0.18 1.14,-0.26 1.92,7.89 2.73,16.24 2.28,24.76 -0.6,0.82 -1.21,1.63 -1.84,2.41 -0.46,-0.87 -0.93,-1.73 -1.42,-2.58 1.14,-8.19 1.06,-16.38 -0.16,-24.33z"/>
   <path class="fil22" d="M73.37 67.29l2.95 4.83 1.08 -2.3 2.28 1.98 0.19 -4.53c-0.27,-0.11 -0.5,-0.19 -0.79,-0.27l-1.73 1.78 -2.34 -1.94c-0.59,0.1 -1.08,0.24 -1.64,0.45z"/>
   <path class="fil19" d="M103.93 84.49l-2.04 0.14 0.34 2.11 1.99 -0.48c0.51,-0.11 0.85,-0.56 0.77,-1.03 -0.07,-0.47 -0.54,-0.8 -1.06,-0.74z"/>
   <path class="fil15" d="M102.29 86.88l-0.31 -2.49c-2.79,0.18 -5.56,0.31 -8.23,0.14 -1.33,-0.09 -2.63,-0.26 -3.87,-0.55 -1.24,-0.29 -2.42,-0.69 -3.53,-1.23 -2.23,-1.08 -4.2,-2.66 -6,-4.52 -0.9,-0.94 -1.75,-1.94 -2.58,-2.97l-0.62 -0.79 -0.6 -0.8 -0.3 -0.4 -0.3 -0.41 -0.59 -0.82c-0.02,-0.04 -0.05,-0.08 -0.08,-0.12 -0.27,-0.34 -0.59,-0.61 -0.95,-0.8 -0.37,-0.2 -0.76,-0.33 -1.17,-0.38 -0.82,-0.11 -1.7,0.09 -2.43,0.63l0 0c-0.75,0.56 -1.19,1.37 -1.28,2.24 -0.1,0.86 0.17,1.77 0.8,2.5l0.74 0.82 0.37 0.4 0.38 0.4c0.26,0.27 0.51,0.53 0.77,0.8l0.78 0.78c1.06,1.04 2.17,2.06 3.34,3.01 1.18,0.96 2.43,1.86 3.78,2.65 1.33,0.79 2.77,1.47 4.26,1.98 1.49,0.51 3.03,0.83 4.56,0.99 1.53,0.17 3.03,0.18 4.51,0.1 1.47,-0.08 2.91,-0.24 4.34,-0.45 1.42,-0.21 2.82,-0.45 4.21,-0.71z"/>
   <path class="fil21" d="M96.05 84.61c1.95,0.01 3.94,-0.09 5.93,-0.22l0.14 1.15c0.04,0.02 0.09,0.03 0.13,0.05l-0.16 -1.33 -0.12 0.01c-1.84,0.12 -3.88,0.23 -5.92,0.21l0 0.13zm-1.15 -0.03l-0.04 -0.12c-0.37,-0.01 -0.73,-0.03 -1.1,-0.06 -1.42,-0.09 -2.68,-0.27 -3.85,-0.54 -1.27,-0.3 -2.45,-0.71 -3.51,-1.23 -0.54,-0.26 -1.09,-0.56 -1.63,-0.9l-0.09 0.09c0.54,0.34 1.1,0.65 1.67,0.93 1.11,0.54 2.29,0.94 3.53,1.23 1.24,0.29 2.54,0.46 3.87,0.55 0.38,0.02 0.76,0.04 1.15,0.05zm-4.67 3.57c1.11,0.08 2.27,0.08 3.51,0.02 1.33,-0.07 2.71,-0.22 4.35,-0.46 0.58,-0.08 1.18,-0.17 1.82,-0.28l-0.12 -0.11c-0.57,0.1 -1.14,0.19 -1.71,0.27 -1.43,0.21 -2.87,0.37 -4.34,0.45 -1.15,0.06 -2.33,0.07 -3.51,-0.01 0,0.04 0,0.08 0,0.12zm-8.3 -2.21l0.05 -0.12c-0.54,-0.27 -1.06,-0.55 -1.57,-0.85 -1.35,-0.79 -2.6,-1.69 -3.78,-2.65 -1.17,-0.95 -2.28,-1.97 -3.34,-3.01l-0.78 -0.78 -0.02 -0.02 -0.07 0.1 0 0.01 0.78 0.78c1.19,1.16 2.29,2.15 3.35,3.02 1.3,1.05 2.54,1.92 3.79,2.65 0.53,0.32 1.06,0.6 1.59,0.87zm-11.48 -9.42l0.14 -0.04 -0.34 -0.37c-0.63,-0.73 -0.9,-1.64 -0.8,-2.5 0.09,-0.87 0.53,-1.68 1.28,-2.24l0 0c0.56,-0.42 1.21,-0.63 1.85,-0.66l0.02 -0.12c-0.7,0.02 -1.37,0.26 -1.94,0.68l-0.01 0c-0.37,0.28 -0.68,0.62 -0.91,1.02 -0.23,0.4 -0.37,0.84 -0.42,1.3 -0.1,0.92 0.2,1.87 0.84,2.61l0.29 0.32zm9.79 1.59l0.08 -0.1c-0.58,-0.61 -1.18,-1.28 -1.81,-2.03l-0.08 0.09c0.58,0.7 1.19,1.39 1.81,2.04zm-3.55 -4.25l0.07 -0.11 -0.11 -0.15 -0.3 -0.41 -0.88 -1.23c-0.03,-0.04 -0.06,-0.08 -0.09,-0.12 -0.27,-0.34 -0.61,-0.62 -1,-0.83 -0.14,-0.08 -0.28,-0.15 -0.43,-0.2l-0.01 0.13c0.13,0.05 0.26,0.11 0.39,0.18 0.36,0.19 0.68,0.46 0.95,0.8 0.03,0.04 0.06,0.08 0.08,0.12l0.59 0.82 0.3 0.41 0.3 0.4 0.14 0.19z"/>
   <path class="fil23" d="M24.09 112.04l0 0.03c0.27,0.03 3.62,0 4,0 1.27,0.01 2.61,-0.07 3.78,0.22 0.94,0.23 1.95,0.77 2.53,1.47 0.33,0.4 0.57,0.67 0.84,1.16 0.21,0.4 0.47,0.93 0.57,1.43l-10.58 0.01c-0.15,0.34 -1.05,2.28 -1.13,2.53l11.93 0.01c0.09,0.77 -0.4,2.29 -0.93,2.98 -0.59,0.78 -1.26,1.29 -2.29,1.63 -0.38,0.13 -1.81,0.47 -2.22,0.38 -0.02,0.01 -0.02,0.02 -0.06,0.03 -0.18,0.03 -5.66,0.01 -5.81,0.01l0 3.43c0.57,-0.02 1.18,0 1.76,0 0.6,0 1.19,0 1.79,0 2.95,0.01 4.63,0.13 6.35,2.52 1.01,1.39 2.3,4.16 3.11,5.77 0.13,0.27 2.25,4.47 2.36,4.76l4.5 0 -3.48 -6.93c-0.96,-1.9 -2.2,-4.49 -3.68,-6.01 -0.5,-0.51 -1.04,-0.98 -1.69,-1.3 -0.16,-0.08 -0.37,-0.15 -0.52,-0.23 0.05,-0.05 0.19,-0.08 0.27,-0.1 1.36,-0.44 2.58,-1.2 3.43,-2.33 0.91,-1.2 1.33,-2.38 1.5,-3.89 0.03,-0.22 0.02,-0.52 0.06,-0.72l5.09 0 1.11 -2.47c0.01,-0.1 0.01,-0.07 -0.11,-0.08 -0.05,0 -0.15,0.01 -0.21,0.01l-1.21 0c-0.53,0 -1.07,0 -1.61,0 -0.68,0 -2.7,0.03 -3.22,-0.01 -0.05,-0.1 -0.11,-0.5 -0.14,-0.64 -0.5,-2.36 -1.87,-3.51 -1.92,-3.63l7.3 0 0.85 -1.9c0.08,-0.16 0.23,-0.48 0.28,-0.65l-21.47 0 -1.09 2.46c-0.01,0 -0.01,0.01 -0.02,0.01l-0.02 0.04z"/>
  </g>
 </g>
</svg>
