<?xml version="1.0" encoding="UTF-8"?>
<!DOCTYPE svg PUBLIC "-//W3C//DTD SVG 1.1//EN" "http://www.w3.org/Graphics/SVG/1.1/DTD/svg11.dtd">
<!-- Creator: CorelDRAW -->
<svg xmlns="http://www.w3.org/2000/svg" xml:space="preserve" width="65px" height="53px" version="1.1" style="shape-rendering:geometricPrecision; text-rendering:geometricPrecision; image-rendering:optimizeQuality; fill-rule:evenodd; clip-rule:evenodd"
viewBox="0 0 6.38 5.22"
 xmlns:xlink="http://www.w3.org/1999/xlink"
 xmlns:xodm="http://www.corel.com/coreldraw/odm/2003">
 <defs>
  <style type="text/css">
   <![CDATA[
    .fil0 {fill:#015FC9;fill-rule:nonzero}
   ]]>
  </style>
 </defs>
 <g id="Layer_x0020_1">
  <metadata id="CorelCorpID_0Corel-Layer"/>
  <g id="_2104146197568">
   <g>
    <path id="path1974" class="fil0" d="M0.51 2.67l5.36 0 0 0.26 -5.36 0 0 0 0 -0.26zm0 0.26c-0.07,0 -0.13,-0.06 -0.13,-0.13 0,-0.07 0.06,-0.13 0.13,-0.13l0 0.26zm-0.51 -0.51l0.26 0 0 0 0 0.01 0 0.01 0.01 0.02 0 0.01 0 0.01 0 0.01 0.01 0.01 0 0.01 0.01 0.02 0 0.01 0.01 0.01 0 0.01 0.01 0.01 0.01 0.01 0.01 0.01 0.01 0 0 0.01 0.01 0.01 0.01 0.01 0.01 0 0.01 0.01 0.01 0.01 0.01 0 0.01 0.01 0.02 0 0.01 0.01 0.01 0 0.01 0 0.01 0 0.02 0.01 0.01 0 0.01 0 0 0.26 -0.02 0 -0.03 0 -0.03 -0.01 -0.02 0 -0.03 -0.01 -0.02 0 -0.02 -0.01 -0.03 -0.01 -0.02 -0.01 -0.02 -0.01 -0.02 -0.01 -0.02 -0.02 -0.02 -0.01 -0.02 -0.02 -0.02 -0.01 -0.02 -0.02 -0.02 -0.02 -0.01 -0.02 -0.02 -0.02 -0.01 -0.02 -0.02 -0.02 -0.01 -0.02 -0.01 -0.02 -0.01 -0.02 -0.01 -0.03 -0.01 -0.02 0 -0.02 -0.01 -0.03 0 -0.02 -0.01 -0.03 0 -0.03 0 -0.02 0 0zm0 0c0,-0.08 0.06,-0.13 0.13,-0.13 0.07,0 0.13,0.05 0.13,0.13l-0.26 0zm0.26 -1.91l0 1.91 -0.26 0 0 -1.91 0 0 0.26 0zm-0.26 0c0,-0.07 0.06,-0.13 0.13,-0.13 0.07,0 0.13,0.06 0.13,0.13l-0.26 0zm0.51 -0.51l0 0.26 0 0 -0.01 0 -0.01 0 -0.02 0.01 -0.01 0 -0.01 0 -0.01 0 -0.01 0.01 -0.02 0 -0.01 0.01 -0.01 0 -0.01 0.01 -0.01 0 -0.01 0.01 -0.01 0.01 -0.01 0.01 0 0.01 -0.01 0 -0.01 0.01 -0.01 0.01 -0.01 0.01 0 0.01 -0.01 0.01 0 0.01 -0.01 0.01 0 0.02 -0.01 0.01 0 0.01 0 0.01 0 0.01 -0.01 0.02 0 0.01 0 0.01 -0.26 0 0 -0.02 0 -0.03 0.01 -0.03 0 -0.02 0.01 -0.03 0 -0.02 0.01 -0.02 0.01 -0.03 0.01 -0.02 0.01 -0.02 0.01 -0.02 0.02 -0.02 0.01 -0.02 0.02 -0.02 0.01 -0.02 0.02 -0.02 0.02 -0.02 0.02 -0.01 0.02 -0.02 0.02 -0.01 0.02 -0.02 0.02 -0.01 0.02 -0.01 0.02 -0.01 0.03 -0.01 0.02 -0.01 0.02 0 0.03 -0.01 0.02 0 0.03 -0.01 0.03 0 0.02 0 0 0zm0 0c0.07,0 0.13,0.06 0.13,0.13 0,0.07 -0.06,0.13 -0.13,0.13l0 -0.26zm5.36 0.26l-5.36 0 0 -0.26 5.36 0 0 0 0 0.26zm0 -0.26c0.07,0 0.13,0.06 0.13,0.13 0,0.07 -0.06,0.13 -0.13,0.13l0 -0.26zm0.51 0.51l-0.26 0 0 0 0 -0.01 0 -0.01 0 -0.02 0 -0.01 -0.01 -0.01 0 -0.01 0 -0.01 -0.01 -0.02 0 -0.01 -0.01 -0.01 0 -0.01 -0.01 -0.01 -0.01 -0.01 -0.01 -0.01 0 -0.01 -0.01 0 -0.01 -0.01 -0.01 -0.01 -0.01 -0.01 -0.01 -0.01 -0.01 0 -0.01 -0.01 -0.01 0 -0.01 -0.01 -0.01 0 -0.01 -0.01 -0.02 0 -0.01 0 -0.01 0 -0.01 -0.01 -0.02 0 -0.01 0 0 -0.26 0.03 0 0.02 0 0.03 0.01 0.02 0 0.03 0.01 0.02 0 0.03 0.01 0.02 0.01 0.02 0.01 0.03 0.01 0.02 0.01 0.02 0.02 0.02 0.01 0.02 0.02 0.02 0.01 0.01 0.02 0.02 0.02 0.02 0.02 0.01 0.02 0.02 0.02 0.01 0.02 0.01 0.02 0.01 0.02 0.01 0.02 0.01 0.03 0.01 0.02 0.01 0.02 0 0.03 0.01 0.02 0 0.03 0 0.03 0 0.02 0 0zm0 0c0,0.07 -0.05,0.13 -0.13,0.13 -0.07,0 -0.13,-0.06 -0.13,-0.13l0.26 0zm-0.26 1.91l0 -1.91 0.26 0 0 1.91 0 0 -0.26 0zm0.26 0c0,0.07 -0.05,0.13 -0.13,0.13 -0.07,0 -0.13,-0.06 -0.13,-0.13l0.26 0zm-0.51 0.51l0 -0.26 0 0 0.01 0 0.02 0 0.01 -0.01 0.01 0 0.01 0 0.02 0 0.01 -0.01 0.01 0 0.01 -0.01 0.01 0 0.01 -0.01 0.01 -0.01 0.01 0 0.01 -0.01 0.01 -0.01 0.01 -0.01 0.01 0 0 -0.01 0.01 -0.01 0.01 -0.01 0.01 -0.01 0 -0.01 0.01 -0.01 0 -0.02 0.01 -0.01 0 -0.01 0 -0.01 0.01 -0.01 0 -0.01 0 -0.02 0 -0.01 0 -0.01 0.26 0 0 0.02 0 0.03 0 0.03 -0.01 0.02 0 0.03 -0.01 0.02 -0.01 0.02 -0.01 0.03 -0.01 0.02 -0.01 0.02 -0.01 0.02 -0.01 0.02 -0.02 0.02 -0.01 0.02 -0.02 0.02 -0.02 0.02 -0.01 0.02 -0.02 0.01 -0.02 0.02 -0.02 0.01 -0.02 0.02 -0.02 0.01 -0.03 0.01 -0.02 0.01 -0.02 0.01 -0.03 0.01 -0.02 0 -0.03 0.01 -0.02 0 -0.03 0.01 -0.02 0 -0.03 0 0 0zm0 0c-0.07,0 -0.13,-0.06 -0.13,-0.13 0,-0.07 0.06,-0.13 0.13,-0.13l0 0.26z"/>
   </g>
   <g>
    <path id="path1978" class="fil0" d="M0.89 2.17c-0.07,0 -0.13,-0.06 -0.13,-0.13 0,-0.08 0.06,-0.13 0.13,-0.13l0 0.26zm4.6 0l-4.6 0 0 -0.26 4.6 0 0 0.26zm0 -0.26c0.07,0 0.13,0.05 0.13,0.13 0,0.07 -0.06,0.13 -0.13,0.13l0 -0.26z"/>
   </g>
   <g>
    <path id="path1982" class="fil0" d="M4.92 1.27c0,0.11 -0.09,0.19 -0.19,0.19 -0.11,0 -0.19,-0.08 -0.19,-0.19 0,-0.1 0.08,-0.19 0.19,-0.19 0.1,0 0.19,0.09 0.19,0.19z"/>
    <path id="_1" class="fil0" d="M4.73 1.6l0 -0.27 0 0 0 0 0 0 0.01 0 0 0 0 0 0.01 0 0 0 0 0 0 0 0.01 0 0 0 0 -0.01 0 0 0.01 0 0 0 0 0 0 -0.01 0 0 0.01 0 0 0 0 -0.01 0 0 0 0 0 0 0 -0.01 0.01 0 0 0 0 0 0 -0.01 0 0 0 0 0 -0.01 0.26 0 0 0.02 0 0.02 0 0.01 -0.01 0.02 0 0.01 0 0.02 -0.01 0.01 0 0.02 -0.01 0.01 -0.01 0.02 -0.01 0.01 0 0.01 -0.01 0.02 -0.01 0.01 -0.01 0.01 -0.01 0.01 -0.01 0.01 -0.02 0.01 -0.01 0.01 -0.01 0.01 -0.01 0.01 -0.02 0.01 -0.01 0 -0.02 0.01 -0.01 0.01 -0.02 0 -0.01 0.01 -0.02 0 -0.01 0 -0.02 0 -0.01 0.01 -0.02 0 0 0zm-0.32 -0.33l0.26 0 0 0 0 0.01 0 0 0 0 0 0.01 0 0 0 0 0 0 0 0.01 0.01 0 0 0 0 0 0 0.01 0 0 0 0 0 0 0.01 0.01 0 0 0 0 0 0 0.01 0 0 0.01 0 0 0 0 0.01 0 0 0 0 0 0 0 0.01 0 0 0 0 0 0.01 0 0 0 0 0.27 -0.02 0 -0.01 -0.01 -0.02 0 -0.02 0 -0.01 0 -0.02 -0.01 -0.01 0 -0.02 -0.01 -0.01 -0.01 -0.01 0 -0.02 -0.01 -0.01 -0.01 -0.01 -0.01 -0.02 -0.01 -0.01 -0.01 -0.01 -0.01 -0.01 -0.01 -0.01 -0.01 -0.01 -0.01 -0.01 -0.02 -0.01 -0.01 0 -0.01 -0.01 -0.02 -0.01 -0.01 0 -0.02 -0.01 -0.01 0 -0.02 -0.01 -0.01 0 -0.02 0 -0.01 0 -0.02 0 -0.02 0 0zm0.32 -0.32l0 0.26 0 0 0 0 -0.01 0.01 0 0 0 0 -0.01 0 0 0 0 0 0 0 -0.01 0 0 0 0 0 0 0 -0.01 0.01 0 0 0 0 0 0 -0.01 0 0 0.01 0 0 0 0 0 0 0 0.01 0 0 -0.01 0 0 0 0 0.01 0 0 0 0 0 0.01 0 0 0 0 0 0 -0.26 0 0 -0.01 0 -0.02 0 -0.01 0 -0.02 0.01 -0.02 0 -0.01 0.01 -0.02 0 -0.01 0.01 -0.02 0.01 -0.01 0 -0.01 0.01 -0.02 0.01 -0.01 0.01 -0.01 0.01 -0.01 0.01 -0.01 0.01 -0.01 0.01 -0.01 0.02 -0.01 0.01 -0.01 0.01 -0.01 0.02 -0.01 0.01 -0.01 0.01 0 0.02 -0.01 0.01 0 0.02 -0.01 0.01 0 0.02 0 0.02 -0.01 0.01 0 0.02 0 0 0zm0.32 0.32l-0.26 0 0 0 0 0 0 0 0 0 0 -0.01 0 0 0 0 -0.01 -0.01 0 0 0 0 0 0 0 -0.01 0 0 0 0 -0.01 0 0 -0.01 0 0 0 0 0 0 -0.01 0 0 -0.01 0 0 0 0 -0.01 0 0 0 0 0 0 0 -0.01 0 0 0 0 0 -0.01 0 0 -0.01 0 0 0 -0.26 0.02 0 0.01 0 0.02 0.01 0.01 0 0.02 0 0.01 0.01 0.02 0 0.01 0.01 0.02 0 0.01 0.01 0.02 0.01 0.01 0.01 0.01 0.01 0.01 0.01 0.02 0.01 0.01 0.01 0.01 0.01 0.01 0.01 0.01 0.01 0.01 0.01 0 0.02 0.01 0.01 0.01 0.01 0.01 0.02 0 0.01 0.01 0.02 0 0.01 0 0.02 0.01 0.02 0 0.01 0 0.02 0 0.01 0 0z"/>
   </g>
   <g>
    <path id="path1986" class="fil0" d="M5.68 1.27c0,0.11 -0.08,0.19 -0.19,0.19 -0.1,0 -0.19,-0.08 -0.19,-0.19 0,-0.1 0.09,-0.19 0.19,-0.19 0.11,0 0.19,0.09 0.19,0.19z"/>
    <path id="_1_0" class="fil0" d="M5.49 1.6l0 -0.27 0 0 0 0 0.01 0 0 0 0 0 0.01 0 0 0 0 0 0 0 0.01 0 0 0 0 0 0 -0.01 0.01 0 0 0 0 0 0 0 0 -0.01 0.01 0 0 0 0 0 0 -0.01 0 0 0 0 0.01 0 0 -0.01 0 0 0 0 0 0 0 -0.01 0 0 0 0 0 -0.01 0.26 0 0 0.02 0 0.02 0 0.01 0 0.02 -0.01 0.01 0 0.02 -0.01 0.01 0 0.02 -0.01 0.01 -0.01 0.02 0 0.01 -0.01 0.01 -0.01 0.02 -0.01 0.01 -0.01 0.01 -0.01 0.01 -0.01 0.01 -0.01 0.01 -0.02 0.01 -0.01 0.01 -0.01 0.01 -0.02 0.01 -0.01 0 -0.01 0.01 -0.02 0.01 -0.01 0 -0.02 0.01 -0.01 0 -0.02 0 -0.02 0 -0.01 0.01 -0.02 0 0 0zm-0.32 -0.33l0.26 0 0 0 0 0.01 0 0 0 0 0 0.01 0 0 0 0 0 0 0.01 0.01 0 0 0 0 0 0 0 0.01 0 0 0 0 0.01 0 0 0.01 0 0 0 0 0.01 0 0 0 0 0.01 0 0 0.01 0 0 0 0 0 0 0 0.01 0 0 0 0 0 0 0 0.01 0 0 0 0 0.27 -0.02 0 -0.01 -0.01 -0.02 0 -0.01 0 -0.02 0 -0.01 -0.01 -0.02 0 -0.01 -0.01 -0.02 -0.01 -0.01 0 -0.02 -0.01 -0.01 -0.01 -0.01 -0.01 -0.01 -0.01 -0.02 -0.01 -0.01 -0.01 -0.01 -0.01 -0.01 -0.01 -0.01 -0.01 -0.01 -0.02 0 -0.01 -0.01 -0.01 -0.01 -0.02 -0.01 -0.01 0 -0.02 -0.01 -0.01 0 -0.02 0 -0.01 -0.01 -0.02 0 -0.01 0 -0.02 0 -0.02 0 0zm0.32 -0.32l0 0.26 0 0 0 0 -0.01 0.01 0 0 0 0 0 0 -0.01 0 0 0 0 0 0 0 -0.01 0 0 0 0 0 0 0.01 -0.01 0 0 0 0 0 0 0 -0.01 0.01 0 0 0 0 0 0 0 0.01 0 0 0 0 -0.01 0 0 0.01 0 0 0 0 0 0.01 0 0 0 0 0 0 -0.26 0 0 -0.01 0 -0.02 0 -0.01 0.01 -0.02 0 -0.02 0 -0.01 0.01 -0.02 0 -0.01 0.01 -0.02 0.01 -0.01 0.01 -0.01 0 -0.02 0.01 -0.01 0.01 -0.01 0.01 -0.01 0.01 -0.01 0.01 -0.01 0.02 -0.01 0.01 -0.01 0.01 -0.01 0.01 -0.01 0.02 -0.01 0.01 -0.01 0.02 0 0.01 -0.01 0.02 0 0.01 -0.01 0.02 0 0.01 0 0.02 -0.01 0.01 0 0.02 0 0 0zm0.32 0.32l-0.26 0 0 0 0 0 0 0 0 0 0 -0.01 0 0 0 0 0 -0.01 0 0 -0.01 0 0 0 0 -0.01 0 0 0 0 0 0 -0.01 -0.01 0 0 0 0 0 0 0 0 -0.01 -0.01 0 0 0 0 0 0 -0.01 0 0 0 0 0 0 0 -0.01 0 0 0 0 0 -0.01 -0.01 0 0 0 -0.26 0.02 0 0.01 0 0.02 0.01 0.02 0 0.01 0 0.02 0.01 0.01 0 0.02 0.01 0.01 0 0.01 0.01 0.02 0.01 0.01 0.01 0.01 0.01 0.02 0.01 0.01 0.01 0.01 0.01 0.01 0.01 0.01 0.01 0.01 0.01 0.01 0.01 0.01 0.02 0 0.01 0.01 0.01 0.01 0.02 0 0.01 0.01 0.02 0 0.01 0.01 0.02 0 0.02 0 0.01 0 0.02 0 0.01 0 0z"/>
   </g>
   <g>
    <path id="path1990" class="fil0" d="M0.96 5.2c-0.06,0.03 -0.14,0.01 -0.17,-0.06 -0.03,-0.06 -0.01,-0.14 0.06,-0.17l0.11 0.23zm0.58 -1.35l0.26 0 0 0 0 0.05 0 0.06 -0.01 0.05 -0.01 0.05 0 0.05 -0.01 0.06 -0.02 0.05 -0.01 0.05 -0.01 0.05 -0.02 0.05 -0.02 0.04 -0.02 0.05 -0.02 0.05 -0.03 0.05 -0.02 0.04 -0.03 0.05 -0.02 0.04 -0.03 0.04 -0.03 0.04 -0.04 0.04 -0.03 0.04 -0.04 0.04 -0.03 0.04 -0.04 0.03 -0.04 0.04 -0.04 0.03 -0.04 0.03 -0.04 0.03 -0.05 0.03 -0.04 0.03 -0.05 0.03 -0.05 0.02 -0.11 -0.23 0.04 -0.02 0.03 -0.03 0.04 -0.02 0.04 -0.02 0.03 -0.03 0.04 -0.02 0.03 -0.03 0.03 -0.03 0.03 -0.03 0.03 -0.03 0.03 -0.03 0.03 -0.03 0.03 -0.04 0.02 -0.03 0.03 -0.04 0.02 -0.03 0.02 -0.04 0.02 -0.04 0.02 -0.03 0.02 -0.04 0.02 -0.04 0.01 -0.04 0.02 -0.04 0.01 -0.04 0.01 -0.05 0.01 -0.04 0.01 -0.04 0 -0.04 0.01 -0.05 0 -0.04 0.01 -0.04 0 -0.05 0 0zm0 0c0,-0.07 0.06,-0.13 0.13,-0.13 0.07,0 0.13,0.06 0.13,0.13l-0.26 0zm0.26 -0.29l0 0.29 -0.26 0 0 -0.29 0.26 0zm-0.26 0c0,-0.07 0.06,-0.13 0.13,-0.13 0.07,0 0.13,0.06 0.13,0.13l-0.26 0z"/>
   </g>
   <g>
    <path id="path1994" class="fil0" d="M4.58 3.56c0,-0.07 0.06,-0.13 0.14,-0.13 0.07,0 0.13,0.06 0.13,0.13l-0.27 0zm0 0.29l0 -0.29 0.27 0 0 0.29 0 0 -0.27 0zm0.27 0c0,0.07 -0.06,0.13 -0.13,0.13 -0.08,0 -0.14,-0.06 -0.14,-0.13l0.27 0zm0.69 1.12l-0.12 0.23 -0.05 -0.02 -0.04 -0.03 -0.05 -0.03 -0.04 -0.03 -0.05 -0.03 -0.04 -0.03 -0.04 -0.03 -0.04 -0.04 -0.03 -0.03 -0.04 -0.04 -0.04 -0.04 -0.03 -0.04 -0.03 -0.04 -0.03 -0.04 -0.03 -0.04 -0.03 -0.04 -0.03 -0.05 -0.02 -0.04 -0.02 -0.05 -0.03 -0.05 -0.02 -0.05 -0.01 -0.04 -0.02 -0.05 -0.02 -0.05 -0.01 -0.05 -0.01 -0.05 -0.01 -0.06 -0.01 -0.05 -0.01 -0.05 0 -0.05 0 -0.06 -0.01 -0.05 0.27 0 0 0.05 0 0.04 0 0.04 0.01 0.05 0.01 0.04 0 0.04 0.01 0.04 0.02 0.05 0.01 0.04 0.01 0.04 0.02 0.04 0.01 0.04 0.02 0.04 0.02 0.03 0.02 0.04 0.02 0.04 0.03 0.03 0.02 0.04 0.03 0.03 0.02 0.04 0.03 0.03 0.03 0.03 0.03 0.03 0.03 0.03 0.03 0.03 0.04 0.03 0.03 0.02 0.04 0.03 0.03 0.02 0.04 0.02 0.04 0.03 0.04 0.02zm0 0c0.06,0.03 0.09,0.11 0.06,0.17 -0.04,0.07 -0.12,0.09 -0.18,0.06l0.12 -0.23z"/>
   </g>
   <g>
    <path id="path1998" class="fil0" d="M3.06 3.56c0,-0.07 0.06,-0.13 0.13,-0.13 0.07,0 0.13,0.06 0.13,0.13l-0.26 0zm0 1.52l0 -1.52 0.26 0 0 1.52 -0.26 0zm0.26 0c0,0.08 -0.06,0.14 -0.13,0.14 -0.07,0 -0.13,-0.06 -0.13,-0.14l0.26 0z"/>
   </g>
   <g>
    <path id="path2002" class="fil0" d="M3.82 3.56c0,-0.07 0.06,-0.13 0.13,-0.13 0.08,0 0.14,0.06 0.14,0.13l-0.27 0zm0 1.52l0 -1.52 0.27 0 0 1.52 -0.27 0zm0.27 0c0,0.08 -0.06,0.14 -0.14,0.14 -0.07,0 -0.13,-0.06 -0.13,-0.14l0.27 0z"/>
   </g>
   <g>
    <path id="path2006" class="fil0" d="M2.3 3.56c0,-0.07 0.06,-0.13 0.13,-0.13 0.07,0 0.13,0.06 0.13,0.13l-0.26 0zm0 1.52l0 -1.52 0.26 0 0 1.52 -0.26 0zm0.26 0c0,0.08 -0.06,0.14 -0.13,0.14 -0.07,0 -0.13,-0.06 -0.13,-0.14l0.26 0z"/>
   </g>
  </g>
 </g>
</svg>
