<?xml version="1.0" encoding="UTF-8"?>
<!DOCTYPE svg PUBLIC "-//W3C//DTD SVG 1.1//EN" "http://www.w3.org/Graphics/SVG/1.1/DTD/svg11.dtd">
<!-- Creator: CorelDRAW -->
<svg xmlns="http://www.w3.org/2000/svg" xml:space="preserve" width="65px" height="65px" version="1.1" style="shape-rendering:geometricPrecision; text-rendering:geometricPrecision; image-rendering:optimizeQuality; fill-rule:evenodd; clip-rule:evenodd"
viewBox="0 0 5.92 5.92"
 xmlns:xlink="http://www.w3.org/1999/xlink"
 xmlns:xodm="http://www.corel.com/coreldraw/odm/2003">
 <defs>
  <style type="text/css">
   <![CDATA[
    .fil0 {fill:#015FC9;fill-rule:nonzero}
   ]]>
  </style>
 </defs>
 <g id="Layer_x0020_1">
  <metadata id="CorelCorpID_0Corel-Layer"/>
  <path id="balcony.svg" class="fil0" d="M4.86 1.91c0,-1.05 -0.85,-1.91 -1.9,-1.91 -1.05,0 -1.91,0.86 -1.91,1.91l0 1.22 -1.05 0 0 0.35 0.36 0 0 2.44 5.2 0c0,-0.27 0,-2.2 0,-2.44l0.36 0 0 -0.35 -1.06 0 0 -1.22zm-0.69 2.97l0 -1.4 0.35 0 0 1.4 -0.35 0zm-2.43 -1.4l0 1.4 -0.34 0 0 -1.4 0.34 0zm1.22 -2.44c0.17,0.41 0.47,0.78 0.86,1.03l0 1.06 -1.73 0 0 -1.06c0.38,-0.24 0.69,-0.59 0.87,-1.03zm-0.87 2.44l0.35 0 0 1.4 -0.35 0 0 -1.4zm0.69 0l0.35 0 0 1.4 -0.35 0 0 -1.4zm0.7 0l0.34 0 0 1.4 -0.34 0 0 -1.4zm0.69 -0.35l0 -0.88c0.11,0.05 0.23,0.09 0.35,0.12l0 0.76 -0.35 0zm0.35 -1.22l0 0.1c-0.76,-0.21 -1.31,-0.87 -1.38,-1.65 0.77,0.09 1.38,0.75 1.38,1.55zm-1.74 -1.55c-0.08,0.78 -0.63,1.44 -1.38,1.65l0 -0.1c0,-0.8 0.6,-1.46 1.38,-1.55zm-1.38 2.01c0.12,-0.03 0.23,-0.07 0.34,-0.12l0 0.88 -0.34 0 0 -0.76zm-0.7 1.11l0.35 0 0 1.4 -0.35 0 0 -1.4zm4.51 2.09l-4.51 0 0 -0.35 4.51 0 0 0.35zm0 -0.69l-0.35 0 0 -1.4 0.35 0 0 1.4zm0 0z"/>
 </g>
</svg>
