<?xml version="1.0" encoding="UTF-8"?>
<!DOCTYPE svg PUBLIC "-//W3C//DTD SVG 1.1//EN" "http://www.w3.org/Graphics/SVG/1.1/DTD/svg11.dtd">
<!-- Creator: CorelDRAW -->
<svg xmlns="http://www.w3.org/2000/svg" xml:space="preserve" width="65px" height="62px" version="1.1" style="shape-rendering:geometricPrecision; text-rendering:geometricPrecision; image-rendering:optimizeQuality; fill-rule:evenodd; clip-rule:evenodd"
viewBox="0 0 9.48 8.98"
 xmlns:xlink="http://www.w3.org/1999/xlink"
 xmlns:xodm="http://www.corel.com/coreldraw/odm/2003">
 <defs>
  <style type="text/css">
   <![CDATA[
    .fil0 {fill:#015FC9;fill-rule:nonzero}
   ]]>
  </style>
 </defs>
 <g id="Layer_x0020_1">
  <metadata id="CorelCorpID_0Corel-Layer"/>
  <g id="central-heating.svg">
   <path class="fil0" d="M1.47 3.7c-0.01,0 -0.02,0 -0.02,0 -0.25,0 -0.44,0.2 -0.44,0.44l0 4.39c0,0.25 0.2,0.45 0.45,0.45 0.25,0 0.45,-0.2 0.45,-0.45l0 -4.39c0,-0.24 -0.2,-0.44 -0.44,-0.44 0,0 0,0 0,0l0 0z"/>
   <path class="fil0" d="M3.11 3.7c-0.01,0 -0.01,0 -0.02,0 -0.25,0 -0.44,0.19 -0.45,0.44l0 4.39c0,0.25 0.21,0.45 0.46,0.45 0.25,0 0.45,-0.2 0.45,-0.45l0 -4.39c0,-0.24 -0.2,-0.44 -0.44,-0.44z"/>
   <path class="fil0" d="M4.75 3.7c-0.01,0 -0.01,0 -0.02,0 -0.25,0 -0.44,0.2 -0.44,0.44l0 4.39c0,0.25 0.2,0.45 0.45,0.45 0.25,0 0.45,-0.2 0.45,-0.45l0 -4.39c0,-0.24 -0.2,-0.44 -0.44,-0.44z"/>
   <path class="fil0" d="M6.39 3.7c-0.01,0 -0.01,0 -0.02,0 -0.24,0 -0.44,0.2 -0.44,0.44l0 4.39c0,0.25 0.2,0.45 0.45,0.45 0.25,0 0.45,-0.2 0.45,-0.45l0 -4.39c0,-0.24 -0.2,-0.44 -0.44,-0.44 0,0 0,0 0,0z"/>
   <path class="fil0" d="M8.03 3.7c-0.01,0 -0.01,0 -0.02,0 -0.24,0 -0.44,0.19 -0.44,0.44l0 4.39c0,0.25 0.2,0.45 0.45,0.45 0.25,0 0.45,-0.2 0.45,-0.45l0 -4.39c0,0 0,0 0,0 0,-0.24 -0.2,-0.44 -0.44,-0.44l0 0z"/>
   <path class="fil0" d="M8.97 3.88l-0.2 0c0.03,0.09 0.05,0.19 0.05,0.29 0,0.01 0,0.03 0,0.05l0 1.69 0.16 0c0.27,-0.01 0.49,-0.23 0.5,-0.51l0 -1.01c0,-0.28 -0.23,-0.51 -0.51,-0.51z"/>
   <path class="fil0" d="M0.67 8.3l0 -1.69 -0.16 0c-0.28,0 -0.51,0.23 -0.51,0.51 0,0 0,0 0,0l0 1.01c0,0 0,0 0,0 0,0.28 0.23,0.51 0.51,0.51l0.17 0c-0.01,-0.1 -0.01,-0.2 -0.01,-0.3 0,-0.01 0,-0.03 0,-0.04z"/>
   <path class="fil0" d="M2.88 1.53c0.1,0.05 0.16,0.15 0.16,0.26 0,0.03 -0.01,0.06 -0.02,0.09l-0.2 0.7c0,0 0,0 0,0.01 0,0.09 0.08,0.17 0.18,0.17 0.06,0 0.12,-0.03 0.15,-0.08l0.2 -0.71c0.02,-0.05 0.02,-0.11 0.02,-0.17 0,-0.23 -0.12,-0.45 -0.32,-0.56 -0.09,-0.05 -0.15,-0.15 -0.15,-0.26 0,-0.04 0.01,-0.09 0.03,-0.13l0.26 -0.56c0.03,-0.03 0.05,-0.07 0.05,-0.11 0,-0.1 -0.08,-0.18 -0.18,-0.18 -0.09,0 -0.16,0.06 -0.17,0.14l-0.27 0.56c-0.04,0.09 -0.06,0.18 -0.06,0.27 0,0.23 0.12,0.45 0.32,0.56l0 0z"/>
   <path class="fil0" d="M4.66 1.53c0.09,0.05 0.15,0.15 0.15,0.26 0,0.03 -0.01,0.06 -0.02,0.09l-0.2 0.7c0,0 0,0 0,0 0,0.1 0.08,0.18 0.18,0.18 0.06,0 0.12,-0.03 0.15,-0.08l0.2 -0.71c0.02,-0.05 0.03,-0.11 0.03,-0.17 0,-0.23 -0.13,-0.45 -0.33,-0.56 -0.09,-0.05 -0.15,-0.15 -0.15,-0.26 0,-0.04 0.01,-0.09 0.03,-0.13l0.26 -0.56c0.03,-0.03 0.05,-0.07 0.05,-0.11 0,-0.1 -0.08,-0.18 -0.18,-0.18 -0.08,0 -0.16,0.06 -0.17,0.14l-0.27 0.56c-0.04,0.08 -0.06,0.18 -0.06,0.27 0,0.23 0.12,0.45 0.33,0.56l0 0z"/>
   <path class="fil0" d="M6.59 1.23c-0.09,-0.05 -0.15,-0.15 -0.15,-0.26 0,-0.04 0.01,-0.08 0.03,-0.12l0.27 -0.56c0,-0.01 0,-0.02 0,-0.03 0,-0.1 -0.08,-0.18 -0.18,-0.18 -0.05,0 -0.1,0.03 -0.13,0.06l-0.27 0.56c-0.04,0.09 -0.06,0.18 -0.06,0.28 0,0.23 0.13,0.44 0.33,0.55 0.09,0.05 0.15,0.15 0.15,0.26 0,0.03 0,0.06 -0.01,0.09l-0.21 0.7c0,0 0,0 0,0 0,0.1 0.08,0.18 0.18,0.18 0.06,0 0.12,-0.03 0.15,-0.08l0.2 -0.7c0.02,-0.06 0.03,-0.13 0.03,-0.19 0,-0.23 -0.13,-0.44 -0.33,-0.56l0 0z"/>
  </g>
 </g>
</svg>
