<?xml version="1.0" encoding="UTF-8"?>
<!DOCTYPE svg PUBLIC "-//W3C//DTD SVG 1.1//EN" "http://www.w3.org/Graphics/SVG/1.1/DTD/svg11.dtd">
<!-- Creator: CorelDRAW -->
<svg xmlns="http://www.w3.org/2000/svg" xml:space="preserve" width="75px" height="65px" version="1.1" style="shape-rendering:geometricPrecision; text-rendering:geometricPrecision; image-rendering:optimizeQuality; fill-rule:evenodd; clip-rule:evenodd"
viewBox="0 0 10.14 8.76"
 xmlns:xlink="http://www.w3.org/1999/xlink"
 xmlns:xodm="http://www.corel.com/coreldraw/odm/2003">
 <defs>
  <style type="text/css">
   <![CDATA[
    .fil0 {fill:#015FC9;fill-rule:nonzero}
   ]]>
  </style>
 </defs>
 <g id="Layer_x0020_1">
  <metadata id="CorelCorpID_0Corel-Layer"/>
  <path class="fil0" d="M3.61 3.18c-0.13,0.1 -0.2,0.24 -0.2,0.4 0,0.14 0.05,0.28 0.16,0.38 0.1,0.09 0.22,0.15 0.35,0.15 0.07,0 0.14,-0.02 0.2,-0.04 0.01,0.07 0.04,0.13 0.07,0.19 0.07,0.12 0.17,0.2 0.3,0.23l0 0.76c0,0.08 0.07,0.15 0.15,0.15 0.08,0 0.15,-0.07 0.15,-0.15l0 -0.76c0.12,-0.03 0.23,-0.11 0.3,-0.23 0.03,-0.06 0.05,-0.12 0.06,-0.19 0.07,0.02 0.14,0.04 0.2,0.04 0.19,0 0.35,-0.1 0.45,-0.27 0.09,-0.16 0.09,-0.35 0,-0.51 -0.03,-0.06 -0.08,-0.11 -0.13,-0.15 0.14,-0.12 0.2,-0.27 0.2,-0.41 0,-0.14 -0.06,-0.28 -0.16,-0.38 -0.1,-0.09 -0.23,-0.15 -0.36,-0.15 -0.06,0 -0.13,0.02 -0.2,0.04 -0.01,-0.07 -0.03,-0.13 -0.06,-0.19 -0.09,-0.16 -0.26,-0.25 -0.45,-0.25 -0.19,0 -0.36,0.09 -0.45,0.25 -0.03,0.06 -0.06,0.12 -0.07,0.19 -0.06,-0.02 -0.13,-0.04 -0.2,-0.04 -0.13,0 -0.25,0.06 -0.35,0.15 -0.11,0.1 -0.16,0.24 -0.16,0.38 0,0.18 0.08,0.31 0.2,0.41l0 0zm0.5 -1.91c0.08,0.08 0.18,0.12 0.28,0.12 0.1,0 0.2,-0.04 0.29,-0.1 0.08,0.05 0.17,0.09 0.26,0.1 0.12,0.01 0.23,-0.04 0.32,-0.12 0.17,-0.17 0.14,-0.4 0.01,-0.58 0.13,-0.17 0.16,-0.4 -0.01,-0.57 -0.09,-0.09 -0.2,-0.13 -0.32,-0.12 -0.09,0.01 -0.18,0.04 -0.26,0.1 -0.17,-0.12 -0.4,-0.15 -0.57,0.02 -0.17,0.17 -0.14,0.4 -0.02,0.57 -0.12,0.18 -0.15,0.41 0.02,0.58zm0.26 -0.71c-0.09,-0.08 -0.11,-0.18 -0.05,-0.23 0.02,-0.02 0.04,-0.03 0.07,-0.03 0.01,0 0.01,0 0.01,0 0.05,0 0.1,0.03 0.15,0.08 0.04,0.03 0.08,0.05 0.13,0.05 0.05,0 0.1,-0.02 0.13,-0.05 0.05,-0.05 0.1,-0.08 0.15,-0.08 0.04,-0.01 0.06,0.01 0.09,0.03 0.05,0.05 0.03,0.15 -0.05,0.23 -0.04,0.04 -0.06,0.08 -0.06,0.13 0,0.05 0.02,0.1 0.06,0.13 0.08,0.09 0.1,0.18 0.05,0.24 -0.03,0.02 -0.05,0.03 -0.09,0.03 -0.05,-0.01 -0.1,-0.03 -0.15,-0.08 -0.03,-0.04 -0.08,-0.06 -0.13,-0.06 -0.05,0 -0.09,0.02 -0.13,0.06 -0.05,0.05 -0.1,0.07 -0.15,0.08 -0.03,0 -0.06,-0.01 -0.08,-0.03 -0.06,-0.06 -0.04,-0.15 0.05,-0.24 0.03,-0.03 0.05,-0.08 0.05,-0.13 0,-0.05 -0.02,-0.09 -0.05,-0.13l0 0zm3.68 2.72c-0.09,0.09 -0.13,0.2 -0.12,0.32 0.01,0.09 0.04,0.18 0.1,0.26 -0.06,0.08 -0.09,0.16 -0.1,0.25 -0.01,0.12 0.03,0.24 0.12,0.32 0.09,0.09 0.2,0.13 0.32,0.12 0.09,-0.01 0.18,-0.04 0.26,-0.1 0.08,0.06 0.19,0.1 0.29,0.1 0.1,0 0.2,-0.04 0.28,-0.12 0.17,-0.17 0.14,-0.4 0.02,-0.57 0.12,-0.18 0.15,-0.41 -0.02,-0.58 -0.17,-0.17 -0.4,-0.14 -0.57,-0.01 -0.08,-0.06 -0.17,-0.1 -0.26,-0.11 -0.12,-0.01 -0.23,0.04 -0.32,0.12l0 0zm0.57 0.32c0.05,0 0.1,-0.02 0.14,-0.06 0.08,-0.08 0.17,-0.1 0.23,-0.05 0.06,0.06 0.04,0.15 -0.05,0.24 -0.04,0.03 -0.06,0.08 -0.06,0.13 0,0.05 0.02,0.09 0.06,0.13 0.09,0.08 0.11,0.18 0.05,0.23 -0.06,0.06 -0.15,0.04 -0.23,-0.05 -0.04,-0.04 -0.09,-0.05 -0.14,-0.05 -0.04,0 -0.09,0.01 -0.13,0.05 -0.04,0.05 -0.1,0.08 -0.14,0.08 -0.04,0.01 -0.07,0 -0.09,-0.03 -0.02,-0.02 -0.03,-0.05 -0.03,-0.08 0,-0.05 0.03,-0.1 0.08,-0.15 0.04,-0.04 0.05,-0.08 0.05,-0.13 0,-0.05 -0.01,-0.1 -0.05,-0.13 -0.05,-0.05 -0.08,-0.11 -0.08,-0.15 0,-0.04 0.01,-0.07 0.03,-0.09 0.02,-0.02 0.05,-0.03 0.09,-0.03 0.04,0.01 0.1,0.03 0.14,0.08 0.04,0.04 0.09,0.06 0.13,0.06zm1.37 4.87l-0.24 0c0,-0.26 -0.02,-0.51 -0.04,-0.75 0,-0.09 -0.07,-0.15 -0.16,-0.14 -0.08,0.01 -0.14,0.08 -0.13,0.16 0.02,0.24 0.03,0.48 0.03,0.73l-0.76 0c0.01,-0.96 0.15,-1.85 0.38,-2.48 0.11,0.3 0.2,0.66 0.27,1.07 0.01,0.08 0.09,0.14 0.17,0.12 0.08,-0.01 0.13,-0.09 0.12,-0.17 -0.09,-0.55 -0.22,-1.03 -0.39,-1.38 -0.03,-0.07 -0.1,-0.11 -0.17,-0.11 0,0 0,0 0,0 -0.07,0 -0.14,0.04 -0.17,0.11 -0.15,0.33 -0.27,0.75 -0.36,1.24 -0.06,-0.15 -0.13,-0.28 -0.21,-0.39 -0.03,-0.06 -0.09,-0.09 -0.15,-0.09 -0.07,0 -0.13,0.03 -0.16,0.09 -0.08,0.11 -0.15,0.25 -0.21,0.39 -0.09,-0.51 -0.22,-0.95 -0.38,-1.29l0 -2.61c0.12,-0.04 0.23,-0.12 0.3,-0.23 0.03,-0.06 0.05,-0.13 0.06,-0.2 0.07,0.03 0.13,0.04 0.2,0.04 0.18,0 0.35,-0.1 0.45,-0.26 0.09,-0.16 0.09,-0.36 0,-0.51 0,0 0,0 0,0 -0.03,-0.06 -0.08,-0.12 -0.13,-0.16 0.14,-0.11 0.2,-0.26 0.2,-0.4 0,-0.15 -0.06,-0.28 -0.17,-0.38 -0.09,-0.1 -0.22,-0.15 -0.35,-0.15 -0.07,0 -0.13,0.01 -0.2,0.04 -0.01,-0.07 -0.03,-0.14 -0.06,-0.2 -0.1,-0.15 -0.26,-0.25 -0.45,-0.25 -0.19,0 -0.36,0.1 -0.45,0.25 -0.04,0.06 -0.06,0.13 -0.07,0.2 -0.06,-0.03 -0.13,-0.04 -0.2,-0.04 -0.13,0 -0.26,0.05 -0.35,0.15 -0.11,0.1 -0.16,0.23 -0.16,0.38 0,0.18 0.08,0.31 0.2,0.4 -0.13,0.1 -0.2,0.24 -0.2,0.4 0,0.15 0.05,0.29 0.16,0.39 0.09,0.09 0.22,0.14 0.35,0.14 0.07,0 0.14,-0.01 0.2,-0.04 0.01,0.07 0.03,0.14 0.07,0.2 0.06,0.11 0.17,0.19 0.3,0.23l0 0.88c-0.24,-0.21 -0.55,-0.31 -0.86,-0.26 -0.07,0.01 -0.12,0.06 -0.13,0.12 -0.05,0.34 0.07,0.67 0.31,0.92 0.18,0.18 0.42,0.29 0.68,0.31l0 0.64c-0.16,0.32 -0.28,0.73 -0.37,1.21 -0.05,-0.12 -0.11,-0.22 -0.17,-0.31 -0.04,-0.06 -0.09,-0.09 -0.16,-0.09 -0.06,0 -0.12,0.03 -0.15,0.09 -0.08,0.11 -0.15,0.24 -0.21,0.39 -0.09,-0.49 -0.21,-0.91 -0.36,-1.24 -0.03,-0.07 -0.1,-0.11 -0.17,-0.11 0,0 0,0 0,0 -0.08,0 -0.14,0.04 -0.17,0.11l0 0c-0.16,0.33 -0.28,0.76 -0.37,1.24 -0.06,-0.15 -0.13,-0.29 -0.21,-0.4l0 -0.52c0,-0.09 -0.07,-0.15 -0.15,-0.15 -0.08,0 -0.15,0.06 -0.15,0.15l0 0.52c-0.08,0.11 -0.15,0.25 -0.21,0.39 -0.06,-0.29 -0.12,-0.56 -0.2,-0.8 0.01,0 0.01,0 0.01,0 0.09,-0.09 0.13,-0.2 0.12,-0.33 -0.01,-0.08 -0.04,-0.17 -0.1,-0.25 0.06,-0.08 0.09,-0.16 0.1,-0.25 0.01,-0.12 -0.03,-0.24 -0.12,-0.32 -0.08,-0.09 -0.2,-0.13 -0.32,-0.12 -0.09,0.01 -0.17,0.04 -0.25,0.1 -0.08,-0.06 -0.17,-0.09 -0.26,-0.1 -0.12,-0.01 -0.23,0.03 -0.32,0.12 -0.17,0.17 -0.14,0.4 -0.02,0.57 -0.05,0.08 -0.09,0.17 -0.1,0.25 -0.01,0.13 0.04,0.24 0.12,0.33 0.09,0.08 0.2,0.12 0.32,0.11 0.04,0 0.08,-0.01 0.12,-0.03 -0.06,0.22 -0.12,0.47 -0.17,0.73 -0.06,-0.15 -0.13,-0.28 -0.2,-0.39 -0.04,-0.06 -0.1,-0.09 -0.16,-0.09 -0.06,0 -0.12,0.03 -0.16,0.09 -0.07,0.11 -0.14,0.24 -0.2,0.39 -0.03,-0.07 -0.1,-0.11 -0.17,-0.1 -0.08,0.01 -0.14,0.09 -0.12,0.17 0.03,0.19 0.06,0.39 0.08,0.6 -0.06,0.29 -0.1,0.6 -0.11,0.93l-0.6 0c0.02,-0.97 0.15,-1.86 0.38,-2.48 0.04,0.09 0.07,0.19 0.1,0.29 0.02,0.08 0.1,0.13 0.18,0.11 0.08,-0.03 0.13,-0.11 0.1,-0.19 -0.06,-0.23 -0.14,-0.44 -0.23,-0.62l0 -0.64c0.26,-0.02 0.5,-0.13 0.68,-0.31 0.24,-0.25 0.36,-0.58 0.31,-0.92 -0.01,-0.06 -0.06,-0.11 -0.13,-0.12 -0.31,-0.05 -0.62,0.05 -0.86,0.26l0 -0.88c0.13,-0.04 0.24,-0.12 0.3,-0.23 0.04,-0.06 0.06,-0.13 0.07,-0.2 0.06,0.03 0.13,0.04 0.2,0.04 0.18,0 0.35,-0.1 0.44,-0.26 0.1,-0.16 0.1,-0.36 0.01,-0.51 -0.04,-0.06 -0.08,-0.12 -0.14,-0.16 0.15,-0.11 0.2,-0.26 0.2,-0.4 0,-0.15 -0.05,-0.28 -0.16,-0.38 -0.1,-0.1 -0.22,-0.15 -0.35,-0.15 -0.07,0 -0.14,0.01 -0.2,0.04 -0.01,-0.07 -0.03,-0.14 -0.07,-0.2 -0.09,-0.15 -0.26,-0.25 -0.45,-0.25 -0.19,0 -0.35,0.1 -0.45,0.25 -0.03,0.06 -0.05,0.13 -0.06,0.2 -0.07,-0.03 -0.13,-0.04 -0.2,-0.04 -0.13,0 -0.26,0.05 -0.36,0.15 -0.1,0.1 -0.16,0.23 -0.16,0.38 0,0.18 0.09,0.31 0.21,0.4 -0.14,0.1 -0.21,0.24 -0.21,0.4 0,0.15 0.06,0.29 0.16,0.39 0.1,0.09 0.23,0.14 0.36,0.14 0.07,0 0.13,-0.01 0.2,-0.04 0.01,0.07 0.03,0.14 0.06,0.2 0.07,0.11 0.18,0.19 0.3,0.23l0 0.24c-0.23,-0.2 -0.54,-0.3 -0.86,-0.26 -0.06,0.01 -0.12,0.06 -0.12,0.13 -0.05,0.34 0.06,0.67 0.3,0.91 0.19,0.19 0.43,0.3 0.68,0.32l0 1.27c-0.11,0.24 -0.21,0.53 -0.29,0.85 -0.07,-0.3 -0.16,-0.58 -0.27,-0.8 -0.03,-0.07 -0.1,-0.11 -0.17,-0.11 -0.07,0 -0.14,0.04 -0.17,0.11 -0.3,0.66 -0.49,1.71 -0.51,2.84l-0.24 0c-0.08,0 -0.15,0.06 -0.15,0.14 0,0.09 0.07,0.15 0.15,0.15l9.84 0c0.09,0 0.15,-0.06 0.15,-0.15 0,-0.08 -0.06,-0.14 -0.15,-0.14l0 0zm-1.81 -6.3c-0.04,0.07 -0.11,0.12 -0.19,0.12 -0.11,0 -0.21,-0.09 -0.27,-0.17 0.09,-0.08 0.15,-0.2 0.18,-0.32 0.1,0.02 0.23,0.06 0.28,0.15 0.04,0.07 0.04,0.15 0,0.22zm-0.19 -1.15c0.14,0 0.22,0.13 0.22,0.23 0,0.13 -0.11,0.22 -0.31,0.25 -0.02,-0.12 -0.09,-0.23 -0.18,-0.32 0.06,-0.08 0.16,-0.16 0.27,-0.16l0 0zm-1.43 1.27c-0.14,0 -0.22,-0.14 -0.22,-0.24 0,-0.08 0.05,-0.14 0.09,-0.17 0.06,-0.04 0.13,-0.07 0.22,-0.08 0.03,0.12 0.09,0.24 0.19,0.32 -0.07,0.08 -0.17,0.17 -0.28,0.17l0 0zm0.09 -0.79c-0.2,-0.03 -0.31,-0.12 -0.31,-0.25 0,-0.1 0.08,-0.23 0.22,-0.23 0.11,0 0.21,0.09 0.28,0.16 -0.1,0.09 -0.16,0.2 -0.19,0.32zm-3.8 0.67c-0.04,0.07 -0.11,0.12 -0.18,0.12 -0.11,0 -0.21,-0.09 -0.28,-0.17 0.1,-0.08 0.16,-0.2 0.19,-0.32 0.1,0.02 0.23,0.06 0.28,0.15 0.04,0.07 0.04,0.15 -0.01,0.22l0 0zm-0.18 -1.15c0.14,0 0.22,0.13 0.22,0.23 0,0.13 -0.11,0.22 -0.31,0.25 -0.03,-0.12 -0.09,-0.23 -0.19,-0.32 0.07,-0.08 0.17,-0.16 0.28,-0.16zm-1.43 1.27c-0.14,0 -0.22,-0.14 -0.22,-0.24 0,-0.08 0.05,-0.14 0.09,-0.17 0.05,-0.04 0.13,-0.07 0.22,-0.08 0.02,0.12 0.09,0.24 0.18,0.32 -0.06,0.08 -0.16,0.17 -0.27,0.17zm0.09 -0.79c-0.2,-0.03 -0.31,-0.12 -0.31,-0.25 0,-0.1 0.08,-0.23 0.22,-0.23 0.11,0 0.21,0.08 0.27,0.16 -0.09,0.09 -0.16,0.2 -0.18,0.32zm0.93 2.61c0.15,-0.15 0.34,-0.23 0.54,-0.24 0,0.21 -0.08,0.4 -0.23,0.55 -0.13,0.12 -0.29,0.2 -0.47,0.22l0 -0.3c0.04,-0.09 0.09,-0.17 0.16,-0.23zm-0.5 -3.4c0.04,-0.06 0.11,-0.1 0.19,-0.1 0.09,0 0.16,0.04 0.19,0.1 0.06,0.1 0.03,0.23 0,0.32 -0.06,-0.01 -0.12,-0.02 -0.19,-0.02 -0.06,0 -0.12,0.01 -0.18,0.02 -0.04,-0.09 -0.06,-0.22 -0.01,-0.32zm-0.15 0.94c0,-0.19 0.15,-0.35 0.34,-0.35 0.19,0 0.35,0.16 0.35,0.35 0,0.19 -0.16,0.35 -0.35,0.35 -0.19,0 -0.34,-0.16 -0.34,-0.35zm0.15 0.94c-0.05,-0.1 -0.03,-0.23 0.01,-0.32 0.06,0.02 0.12,0.03 0.18,0.03 0.07,0 0.13,-0.01 0.19,-0.03 0.03,0.09 0.06,0.22 0,0.32 -0.03,0.06 -0.1,0.1 -0.19,0.1 -0.08,0 -0.15,-0.04 -0.19,-0.1l0 0zm-0.43 1.19c-0.14,-0.14 -0.22,-0.34 -0.23,-0.54 0.21,0 0.4,0.09 0.54,0.23 0.07,0.07 0.13,0.15 0.16,0.23l0 0.31c-0.17,-0.02 -0.34,-0.1 -0.47,-0.23zm-0.05 4.69l-0.59 0c0.01,-0.96 0.15,-1.85 0.38,-2.48 0.13,0.35 0.23,0.78 0.29,1.25 -0.05,0.39 -0.08,0.8 -0.08,1.23zm1.79 0l-0.6 0c0.02,-0.65 0.16,-1.26 0.38,-1.68 0.11,0.22 0.2,0.47 0.27,0.76 -0.03,0.3 -0.05,0.6 -0.05,0.92zm0.17 -2.59c-0.04,0 -0.07,-0.01 -0.09,-0.03 -0.05,-0.06 -0.03,-0.15 0.05,-0.24 0.04,-0.03 0.06,-0.08 0.06,-0.13 0,-0.05 -0.02,-0.1 -0.06,-0.13 -0.08,-0.09 -0.1,-0.18 -0.05,-0.23 0.06,-0.06 0.15,-0.04 0.24,0.05 0.03,0.03 0.08,0.05 0.13,0.05 0.05,0 0.09,-0.02 0.13,-0.05 0.05,-0.05 0.1,-0.08 0.14,-0.09 0.04,0 0.07,0.01 0.09,0.04 0.02,0.02 0.03,0.05 0.03,0.08 0,0.05 -0.03,0.1 -0.08,0.15 -0.03,0.03 -0.05,0.08 -0.05,0.13 0,0.05 0.02,0.1 0.05,0.13 0.05,0.05 0.08,0.1 0.08,0.15 0,0.03 -0.01,0.06 -0.03,0.09 -0.05,0.05 -0.15,0.03 -0.23,-0.06 -0.04,-0.03 -0.08,-0.05 -0.13,-0.05 -0.05,0 -0.1,0.02 -0.13,0.05 -0.05,0.05 -0.11,0.08 -0.15,0.09l0 0zm0.72 2.59l-0.6 0c0.02,-0.88 0.13,-1.7 0.33,-2.31 0.04,0.01 0.08,0.01 0.12,0.01 0.12,0.39 0.21,0.85 0.26,1.35 -0.06,0.3 -0.1,0.62 -0.11,0.95zm0.9 0l-0.6 0c0.02,-0.66 0.15,-1.26 0.38,-1.68 0.11,0.22 0.2,0.48 0.27,0.77 -0.03,0.29 -0.05,0.6 -0.05,0.91l0 0zm0.9 0l-0.6 0c0.01,-0.96 0.15,-1.85 0.38,-2.48 0.15,0.42 0.26,0.95 0.32,1.55 -0.06,0.29 -0.1,0.6 -0.1,0.93l0 0zm0.84 0l-0.55 0c0.02,-0.65 0.16,-1.26 0.38,-1.68 0.1,0.18 0.17,0.39 0.24,0.62 -0.04,0.33 -0.07,0.69 -0.07,1.06l0 0zm0.49 -7.76c0.03,-0.06 0.1,-0.1 0.19,-0.1 0.08,0 0.15,0.04 0.19,0.1 0.05,0.1 0.03,0.23 -0.01,0.32 -0.06,-0.01 -0.12,-0.02 -0.18,-0.02 -0.07,0 -0.13,0.01 -0.19,0.02 -0.03,-0.09 -0.06,-0.22 0,-0.32l0 0zm-0.16 0.94c0,-0.19 0.15,-0.35 0.35,-0.35 0.19,0 0.34,0.16 0.34,0.35 0,0.19 -0.15,0.35 -0.34,0.35 -0.2,0 -0.35,-0.16 -0.35,-0.35zm0.16 0.94c-0.06,-0.1 -0.03,-0.23 0,-0.32 0.06,0.02 0.12,0.03 0.19,0.03 0.06,0 0.12,-0.01 0.18,-0.03 0.04,0.09 0.06,0.22 0.01,0.32 -0.04,0.06 -0.11,0.1 -0.19,0.1 -0.09,0 -0.16,-0.04 -0.19,-0.1l0 0zm-0.43 1.83c-0.15,-0.15 -0.23,-0.34 -0.23,-0.55 0.2,0.01 0.39,0.09 0.54,0.24 0.07,0.06 0.12,0.14 0.16,0.23l0 0.3c-0.18,-0.02 -0.34,-0.1 -0.47,-0.22l0 0zm0.84 4.05l-0.6 0c0.01,-0.97 0.15,-1.86 0.38,-2.48 0.15,0.42 0.26,0.96 0.33,1.56 -0.07,0.28 -0.1,0.6 -0.11,0.92zm0.89 0l-0.59 0c0.01,-0.66 0.15,-1.26 0.38,-1.68 0.11,0.22 0.2,0.47 0.27,0.76 -0.03,0.3 -0.05,0.6 -0.06,0.92l0 0zm-2.85 -4.77c-0.04,0.07 -0.11,0.11 -0.19,0.11 -0.11,0 -0.21,-0.09 -0.27,-0.16 0.09,-0.09 0.16,-0.2 0.19,-0.33 0.09,0.02 0.22,0.06 0.28,0.16 0.03,0.06 0.03,0.14 -0.01,0.22l0 0zm-0.19 -1.16c0.14,0 0.22,0.14 0.22,0.23 0,0.13 -0.11,0.22 -0.3,0.26 -0.03,-0.13 -0.1,-0.24 -0.19,-0.32 0.06,-0.08 0.16,-0.17 0.27,-0.17l0 0zm-0.52 1.57c-0.04,0.07 -0.11,0.11 -0.19,0.11 -0.08,0 -0.16,-0.04 -0.19,-0.11 -0.06,-0.09 -0.03,-0.22 0,-0.32 0.06,0.02 0.12,0.03 0.19,0.03 0.06,0 0.13,-0.01 0.18,-0.03 0.04,0.1 0.06,0.23 0.01,0.32zm-0.38 -1.87c0.03,-0.07 0.11,-0.1 0.19,-0.1 0.08,0 0.15,0.03 0.19,0.1 0.05,0.09 0.03,0.22 -0.01,0.32 -0.05,-0.02 -0.12,-0.03 -0.18,-0.03 -0.07,0 -0.13,0.01 -0.19,0.03 -0.03,-0.1 -0.06,-0.23 0,-0.32l0 0zm0.19 0.59c0.19,0 0.35,0.15 0.35,0.35 0,0.19 -0.16,0.34 -0.35,0.34 -0.19,0 -0.35,-0.15 -0.35,-0.34 0,-0.2 0.16,-0.35 0.35,-0.35zm-0.72 0.98c-0.14,0 -0.22,-0.14 -0.22,-0.23 0,-0.09 0.05,-0.14 0.1,-0.17 0.05,-0.04 0.12,-0.07 0.21,-0.09 0.03,0.13 0.1,0.24 0.19,0.33 -0.07,0.07 -0.17,0.16 -0.28,0.16zm0 -1.27c0.11,0 0.21,0.09 0.28,0.17 -0.09,0.08 -0.16,0.19 -0.19,0.32 -0.19,-0.04 -0.31,-0.13 -0.31,-0.26 0,-0.09 0.08,-0.23 0.22,-0.23l0 0z"/>
 </g>
</svg>
