<?xml version="1.0" encoding="UTF-8"?>
<!DOCTYPE svg PUBLIC "-//W3C//DTD SVG 1.1//EN" "http://www.w3.org/Graphics/SVG/1.1/DTD/svg11.dtd">
<!-- Creator: CorelDRAW -->
<svg xmlns="http://www.w3.org/2000/svg" xml:space="preserve" width="69px" height="36px" version="1.1" style="shape-rendering:geometricPrecision; text-rendering:geometricPrecision; image-rendering:optimizeQuality; fill-rule:evenodd; clip-rule:evenodd"
viewBox="0 0 4.95 2.57"
 xmlns:xlink="http://www.w3.org/1999/xlink"
 xmlns:xodm="http://www.corel.com/coreldraw/odm/2003">
 <defs>
  <style type="text/css">
   <![CDATA[
    .fil0 {fill:#015FC9;fill-rule:nonzero}
   ]]>
  </style>
 </defs>
 <g id="Layer_x0020_1">
  <metadata id="CorelCorpID_0Corel-Layer"/>
  <path class="fil0" d="M3.21 1.44c0.06,0 0.1,0.04 0.1,0.09 0,0.06 -0.04,0.1 -0.1,0.1l-1.55 0c-0.06,0 -0.1,-0.04 -0.1,-0.1 0,-0.05 0.04,-0.09 0.1,-0.09l1.55 0z"/>
  <path class="fil0" d="M1.66 1.13c-0.06,0 -0.1,-0.04 -0.1,-0.09 0,-0.06 0.04,-0.1 0.1,-0.1l1.55 0c0.06,0 0.1,0.04 0.1,0.1 0,0.05 -0.04,0.09 -0.1,0.09l-1.55 0z"/>
  <path class="fil0" d="M4.4 1.13c-0.05,0 -0.09,-0.04 -0.09,-0.09 0,-0.06 0.04,-0.1 0.09,-0.1l0.45 0c0.05,0 0.1,0.04 0.1,0.1l0 0.49c0,0.06 -0.05,0.1 -0.1,0.1l-0.45 0c-0.05,0 -0.09,-0.04 -0.09,-0.1 0,-0.05 0.04,-0.09 0.09,-0.09l0.35 0 0 -0.31 -0.35 0z"/>
  <path class="fil0" d="M0.46 1.44c0.05,0 0.09,0.04 0.09,0.09 0,0.06 -0.04,0.1 -0.09,0.1l-0.36 0c-0.06,0 -0.1,-0.04 -0.1,-0.1l0 -0.49c0,-0.06 0.04,-0.1 0.1,-0.1l0.36 0c0.05,0 0.09,0.04 0.09,0.1 0,0.05 -0.04,0.09 -0.09,0.09l-0.27 0 0 0.31 0.27 0z"/>
  <path class="fil0" d="M0.83 2.41l-0.2 0c-0.07,0 -0.14,-0.03 -0.18,-0.08 -0.05,-0.04 -0.08,-0.11 -0.08,-0.18l0 -1.73c0,-0.07 0.03,-0.14 0.08,-0.18 0.04,-0.05 0.11,-0.08 0.18,-0.08l0 0 0.2 0 0 0c0.07,0 0.14,0.03 0.18,0.08 0.05,0.04 0.08,0.11 0.08,0.18l0 0 0 1.73 0 0c0,0.07 -0.03,0.14 -0.08,0.18 -0.04,0.05 -0.11,0.08 -0.18,0.08zm-0.2 -0.2l0.2 0c0.02,0 0.04,0 0.05,-0.01 0.01,-0.02 0.02,-0.03 0.02,-0.05l0 0 0 -1.73 0 0c0,-0.02 -0.01,-0.04 -0.02,-0.05 -0.01,-0.01 -0.03,-0.02 -0.05,-0.02l0 0 -0.2 0 0 0c-0.02,0 -0.03,0.01 -0.05,0.02 -0.01,0.01 -0.01,0.03 -0.01,0.05l0 1.73c0,0.02 0,0.03 0.01,0.05 0.02,0.01 0.03,0.01 0.05,0.01z"/>
  <path class="fil0" d="M1.47 2.57l-0.32 0c-0.07,0 -0.13,-0.03 -0.18,-0.08 -0.05,-0.04 -0.07,-0.11 -0.07,-0.18l0 -2.05c0,-0.07 0.02,-0.14 0.07,-0.19 0.05,-0.04 0.11,-0.07 0.18,-0.07l0.32 0c0.07,0 0.14,0.03 0.18,0.07 0.05,0.05 0.08,0.12 0.08,0.19l0 2.05c0,0.07 -0.03,0.14 -0.08,0.18 -0.04,0.05 -0.11,0.08 -0.18,0.08zm-0.32 -0.2l0.32 0c0.02,0 0.04,0 0.05,-0.01 0.01,-0.02 0.02,-0.03 0.02,-0.05l0 -2.05c0,-0.02 -0.01,-0.04 -0.02,-0.05 -0.01,-0.01 -0.03,-0.02 -0.05,-0.02l-0.32 0c-0.02,0 -0.03,0.01 -0.04,0.02 -0.01,0.01 -0.02,0.03 -0.02,0.05l0 2.05c0,0.02 0.01,0.03 0.02,0.05 0.01,0.01 0.02,0.01 0.04,0.01z"/>
  <path class="fil0" d="M4.03 0.16l0.2 0c0.07,0 0.14,0.03 0.18,0.08 0.05,0.04 0.08,0.11 0.08,0.18l0 1.73c0,0.07 -0.03,0.14 -0.08,0.18 -0.04,0.05 -0.11,0.08 -0.18,0.08l0 0 -0.2 0 0 0c-0.07,0 -0.13,-0.03 -0.18,-0.08 -0.05,-0.04 -0.08,-0.11 -0.08,-0.18l0 0 0 -1.73 0 0c0,-0.07 0.03,-0.14 0.08,-0.18 0.05,-0.05 0.11,-0.08 0.18,-0.08zm0.2 0.19l-0.2 0c-0.02,0 -0.03,0.01 -0.04,0.02 -0.02,0.01 -0.02,0.03 -0.02,0.05l0 0 0 1.73 0 0c0,0.02 0,0.03 0.02,0.05 0.01,0.01 0.02,0.01 0.04,0.01l0 0 0.2 0 0 0c0.02,0 0.04,0 0.05,-0.01 0.01,-0.02 0.02,-0.03 0.02,-0.05l0 -1.73c0,-0.02 -0.01,-0.04 -0.02,-0.05 -0.01,-0.01 -0.03,-0.02 -0.05,-0.02z"/>
  <path class="fil0" d="M3.39 0l0.32 0c0.07,0 0.14,0.03 0.18,0.07 0.05,0.05 0.08,0.12 0.08,0.19l0 2.05c0,0.07 -0.03,0.14 -0.08,0.18 -0.04,0.05 -0.11,0.08 -0.18,0.08l-0.32 0c-0.07,0 -0.14,-0.03 -0.18,-0.08 -0.05,-0.04 -0.08,-0.11 -0.08,-0.18l0 -2.05c0,-0.07 0.03,-0.14 0.08,-0.19 0.04,-0.04 0.11,-0.07 0.18,-0.07zm0.32 0.19l-0.32 0c-0.02,0 -0.03,0.01 -0.05,0.02 -0.01,0.01 -0.01,0.03 -0.01,0.05l0 2.05c0,0.02 0,0.03 0.01,0.05 0.02,0.01 0.03,0.01 0.05,0.01l0.32 0c0.02,0 0.03,0 0.05,-0.01 0.01,-0.02 0.01,-0.03 0.01,-0.05l0 -2.05c0,-0.02 0,-0.04 -0.01,-0.05 -0.02,-0.01 -0.03,-0.02 -0.05,-0.02z"/>
 </g>
</svg>
