<?xml version="1.0" encoding="UTF-8"?>
<!DOCTYPE svg PUBLIC "-//W3C//DTD SVG 1.1//EN" "http://www.w3.org/Graphics/SVG/1.1/DTD/svg11.dtd">
<!-- Creator: CorelDRAW -->
<svg xmlns="http://www.w3.org/2000/svg" xml:space="preserve" width="65px" height="65px" version="1.1" style="shape-rendering:geometricPrecision; text-rendering:geometricPrecision; image-rendering:optimizeQuality; fill-rule:evenodd; clip-rule:evenodd"
viewBox="0 0 7.63 7.62"
 xmlns:xlink="http://www.w3.org/1999/xlink"
 xmlns:xodm="http://www.corel.com/coreldraw/odm/2003">
 <defs>
  <style type="text/css">
   <![CDATA[
    .fil0 {fill:#015FC9;fill-rule:nonzero}
   ]]>
  </style>
 </defs>
 <g id="Layer_x0020_1">
  <metadata id="CorelCorpID_0Corel-Layer"/>
  <path class="fil0" d="M7.54 6.44c-0.08,-0.14 -0.2,-0.26 -0.35,-0.33 0.25,-0.14 0.42,-0.41 0.42,-0.71 0,-0.45 -0.36,-0.81 -0.81,-0.81l-1.5 0c0.22,-0.04 0.43,-0.09 0.61,-0.15 0.05,-0.01 0.09,-0.06 0.09,-0.11 0,0 -0.01,-0.01 -0.01,-0.01 -0.01,-0.17 0,-0.35 0.01,-0.54 0.03,-0.49 0.06,-1.05 -0.42,-1.42 -0.28,-0.22 -0.57,-0.34 -0.86,-0.45 -0.14,-0.06 -0.3,-0.12 -0.44,-0.2 -0.02,0 -0.03,-0.01 -0.05,-0.01 -0.01,0 -0.02,0 -0.03,0 -0.01,0.01 -0.03,0.01 -0.05,0.02l-0.21 0.14c-0.27,-0.08 -0.56,-0.25 -0.82,-0.35 0.02,-0.13 0.14,-0.22 0.27,-0.32 0.18,-0.15 0.38,-0.32 0.38,-0.62 -0.01,-0.34 -0.25,-0.57 -0.62,-0.57 -0.3,0 -0.56,0.25 -0.56,0.54 0,0.06 0.06,0.11 0.12,0.11 0.06,0 0.11,-0.05 0.11,-0.11 0,-0.17 0.16,-0.31 0.33,-0.31 0.24,0 0.38,0.13 0.39,0.35 0,0.18 -0.14,0.3 -0.3,0.43 -0.16,0.12 -0.34,0.27 -0.36,0.5 -0.24,0.07 -0.63,0.27 -0.83,0.34 -0.07,-0.03 -0.2,-0.11 -0.25,-0.13 -0.02,-0.02 -0.11,-0.01 -0.12,0 -0.26,0.11 -0.49,0.21 -0.73,0.32 -0.05,0.02 -0.08,0.09 -0.05,0.15 0.02,0.06 0.09,0.08 0.15,0.06 0.2,-0.09 0.39,-0.18 0.6,-0.27 0.06,0.15 0.14,0.29 0.25,0.41 0.33,0.39 0.88,0.57 1.38,0.46 0.44,-0.1 0.82,-0.44 0.99,-0.87 0.11,0.05 0.23,0.1 0.34,0.14 0.28,0.12 0.55,0.23 0.8,0.42 0.39,0.3 0.36,0.75 0.33,1.23 -0.01,0.16 -0.02,0.32 -0.01,0.48 -0.28,0.08 -0.61,0.16 -0.96,0.15 0.02,-0.38 0.04,-0.63 0.04,-0.64 0.01,-0.06 -0.04,-0.12 -0.1,-0.12 0.02,0 0.02,0 0.02,0 -0.06,0 -0.11,0.04 -0.12,0.1 0,0.01 -0.03,0.35 -0.05,0.85l-0.76 0c-0.19,0 -0.34,0.16 -0.34,0.35 0,0.12 0.06,0.23 0.16,0.29 -0.1,0.1 -0.16,0.25 -0.16,0.4 0,0.17 0.07,0.32 0.18,0.42 -0.04,0.02 -0.07,0.05 -0.1,0.09 -0.07,0.08 -0.1,0.19 -0.08,0.29 0,0.01 0,0.01 0,0.01 0.03,0.11 0.09,0.17 0.16,0.2 -0.06,0.07 -0.1,0.15 -0.13,0.25 -0.05,0.18 -0.02,0.36 0.08,0.49 -0.97,-0.03 -1.91,-0.17 -2.14,-0.43 -0.05,-0.04 -0.05,-0.08 -0.05,-0.11 0.16,-1.32 0.01,-3.08 0.01,-3.1 -0.01,-0.06 -0.07,-0.11 -0.13,-0.1 -0.06,0 -0.11,0.06 -0.1,0.12 0,0.01 0.02,0.25 0.04,0.62 -0.01,0 -0.67,0.06 -0.96,-0.14 0,-0.14 0,-0.28 -0.01,-0.41 0,-0.28 -0.01,-0.54 0.06,-0.79 0.06,-0.18 0.2,-0.37 0.4,-0.55 0.05,-0.05 0.05,-0.12 0.01,-0.17 -0.02,-0.02 -0.05,-0.03 -0.09,-0.03 -0.02,0 -0.05,0.01 -0.07,0.03 -0.24,0.21 -0.43,0.44 -0.48,0.65 -0.06,0.3 -0.06,0.58 -0.06,0.86 0.01,0.16 0.01,0.31 0,0.46 0,0.01 0,0.01 0,0.01 0,0.04 0.02,0.08 0.05,0.1 0.29,0.19 0.61,0.22 0.92,0.22 0.07,0 0.23,-0.01 0.24,-0.01 0.02,0.63 0.03,1.48 -0.05,2.21 -0.02,0.1 0.02,0.2 0.09,0.29 0.43,0.48 2.24,0.51 2.78,0.51l2.01 0c0.07,0 0.12,-0.05 0.12,-0.11 0,-0.07 -0.05,-0.12 -0.12,-0.12 0,0 -1.84,0 -1.86,0 -0.12,0.01 -0.24,0.01 -0.33,-0.05 -0.16,-0.1 -0.17,-0.27 -0.14,-0.39 0.04,-0.12 0.14,-0.25 0.33,-0.25l0 0c0,0 0,0 0,0l2.76 0c0.06,0 0.12,0.05 0.12,0.11 0,0.07 -0.06,0.12 -0.12,0.12l-2.76 0c-0.07,0 -0.12,0.05 -0.12,0.12 0,0.06 0.05,0.11 0.12,0.11l2.76 0c0.19,0 0.35,-0.15 0.35,-0.35 0,-0.19 -0.16,-0.34 -0.35,-0.34l-2.94 0c-0.1,-0.01 -0.15,-0.03 -0.17,-0.09 -0.01,-0.03 0,-0.08 0.02,-0.11 0.03,-0.03 0.06,-0.03 0.1,-0.03 0.33,0 2.23,-0.01 3.01,0 0.17,0.02 0.4,0.09 0.51,0.31 0.14,0.27 0.03,0.52 -0.12,0.67 -0.17,0.17 -0.41,0.17 -0.66,0.17l-0.05 0 0 0c-0.07,0 -0.12,0.05 -0.12,0.12 0,0.06 0.05,0.11 0.12,0.11 0,0 0.08,0 0.1,0 0.26,0 0.55,-0.01 0.77,-0.23 0.27,-0.27 0.33,-0.63 0.17,-0.95zm-3.5 -0.69l2.76 0c0.19,0 0.35,-0.16 0.35,-0.35 0,-0.19 -0.16,-0.35 -0.35,-0.35l-1.32 0c-0.06,0 -0.11,0.06 -0.11,0.12 0,0.06 0.05,0.11 0.11,0.11l1.32 0c0.06,0 0.12,0.06 0.12,0.12 0,0.06 -0.06,0.12 -0.12,0.12l-2.76 0c-0.07,0 -0.12,0.05 -0.12,0.11 0,0.07 0.05,0.12 0.12,0.12zm-3.69 -2.43c0,0.06 0.05,0.11 0.11,0.11 0.07,0 0.12,-0.05 0.12,-0.11 0,-0.28 0.31,-0.6 0.6,-0.74 0.08,-0.04 0.2,-0.09 0.34,-0.15 0.33,0.5 0.88,0.8 1.48,0.8 0.06,0 0.11,-0.05 0.11,-0.11 0,-0.07 -0.05,-0.12 -0.11,-0.12 -0.55,0 -1.06,-0.3 -1.33,-0.78 -0.02,-0.03 -0.06,-0.06 -0.1,-0.06 -0.02,0 -0.03,0.01 -0.05,0.01 -0.18,0.09 -0.33,0.15 -0.44,0.2 -0.36,0.17 -0.73,0.57 -0.73,0.95l0 0zm5.07 -0.15c0,0.07 0.05,0.12 0.11,0.12 0.07,0 0.12,-0.05 0.12,-0.12 0,-0.43 -0.51,-0.7 -0.73,-0.79 -0.05,-0.03 -0.12,0 -0.15,0.06 -0.02,0.05 0,0.12 0.06,0.15 0.1,0.04 0.59,0.27 0.59,0.58l0 0zm-2.16 -0.55c-0.33,0.08 -0.69,0 -0.96,-0.2 0.15,-0.03 0.38,-0.08 0.7,-0.14l0.18 0.04c0.07,0.01 0.13,-0.03 0.14,-0.09 0.01,-0.06 -0.03,-0.12 -0.09,-0.14l-0.21 -0.04c-0.01,0 -0.01,0 -0.02,0 -0.01,0 -0.02,0 -0.02,0 -0.25,0.02 -0.66,0.19 -0.89,0.19 -0.03,-0.05 -0.05,-0.08 -0.08,-0.12 0.23,-0.09 0.53,-0.22 0.99,-0.41 0.29,0.11 0.67,0.3 0.96,0.42 -0.02,0.03 -0.05,0.06 -0.08,0.1l-0.28 -0.06c-0.06,-0.01 -0.12,0.03 -0.13,0.09 -0.02,0.06 0.02,0.12 0.09,0.14l0.12 0.02c-0.12,0.1 -0.27,0.17 -0.42,0.2l0 0zm0.78 2.66c0,0 0,0 0,0l1.06 0c0.06,0 0.11,-0.05 0.11,-0.11 0,-0.06 -0.05,-0.12 -0.11,-0.12l-1.3 0c-0.06,0 -0.11,-0.05 -0.11,-0.11 0,-0.07 0.05,-0.12 0.11,-0.12l3 0c0.32,0 0.58,0.26 0.58,0.58 0,0.32 -0.26,0.58 -0.58,0.58l-2.76 0c-0.2,0 -0.35,-0.16 -0.35,-0.35 0,-0.19 0.15,-0.35 0.35,-0.35l0 0z"/>
 </g>
</svg>
