<?xml version="1.0" encoding="UTF-8"?>
<!DOCTYPE svg PUBLIC "-//W3C//DTD SVG 1.1//EN" "http://www.w3.org/Graphics/SVG/1.1/DTD/svg11.dtd">
<!-- Creator: CorelDRAW -->
<svg xmlns="http://www.w3.org/2000/svg" xml:space="preserve" width="60px" height="73px" version="1.1" style="shape-rendering:geometricPrecision; text-rendering:geometricPrecision; image-rendering:optimizeQuality; fill-rule:evenodd; clip-rule:evenodd"
viewBox="0 0 4.77 5.77"
 xmlns:xlink="http://www.w3.org/1999/xlink"
 xmlns:xodm="http://www.corel.com/coreldraw/odm/2003">
 <defs>
  <style type="text/css">
   <![CDATA[
    .fil0 {fill:#015FC9;fill-rule:nonzero}
   ]]>
  </style>
 </defs>
 <g id="Layer_x0020_1">
  <metadata id="CorelCorpID_0Corel-Layer"/>
  <g id="_2104278369216">
   <path class="fil0" d="M4.08 0.7c-0.94,-0.93 -2.45,-0.93 -3.38,0 -0.93,0.94 -0.93,2.44 0,3.38l1.68 1.69 1.69 -1.68c0.93,-0.94 0.93,-2.45 0.01,-3.39zm-1.7 3.36c-0.91,0 -1.65,-0.75 -1.65,-1.66 0,-0.92 0.74,-1.66 1.65,-1.66 0.92,0 1.66,0.74 1.66,1.66 0,0.91 -0.74,1.66 -1.66,1.66z"/>
   <path class="fil0" d="M3.17 1.58c-0.15,-0.12 -0.36,-0.18 -0.68,-0.18l-0.71 0 0 1.99 0.45 0 0 -0.55 0.28 0c0.3,0 0.51,-0.06 0.66,-0.17 0.14,-0.12 0.21,-0.3 0.21,-0.54 0,-0.25 -0.07,-0.43 -0.21,-0.55zm-0.33 0.78c-0.05,0.06 -0.15,0.09 -0.3,0.09l-0.3 0 0 -0.68 0.25 0c0.15,0 0.26,0.03 0.33,0.07 0.07,0.05 0.11,0.14 0.11,0.24 0,0.14 -0.04,0.22 -0.09,0.28z"/>
  </g>
 </g>
</svg>
