<?xml version="1.0" encoding="UTF-8"?>
<!DOCTYPE svg PUBLIC "-//W3C//DTD SVG 1.1//EN" "http://www.w3.org/Graphics/SVG/1.1/DTD/svg11.dtd">
<!-- Creator: CorelDRAW -->
<svg xmlns="http://www.w3.org/2000/svg" xml:space="preserve" width="65px" height="65px" version="1.1" style="shape-rendering:geometricPrecision; text-rendering:geometricPrecision; image-rendering:optimizeQuality; fill-rule:evenodd; clip-rule:evenodd"
viewBox="0 0 16.17 16.17"
 xmlns:xlink="http://www.w3.org/1999/xlink"
 xmlns:xodm="http://www.corel.com/coreldraw/odm/2003">
 <defs>
  <style type="text/css">
   <![CDATA[
    .fil0 {fill:#015FC9}
   ]]>
  </style>
 </defs>
 <g id="Layer_x0020_1">
  <metadata id="CorelCorpID_0Corel-Layer"/>
  <g id="_2104165803136">
   <path class="fil0" d="M0.95 8.08c0,-1.48 0.54,-3.14 1.45,-4.3 0.06,-0.08 0.13,-0.15 0.19,-0.24 0.18,-0.22 0.68,-0.74 0.9,-0.91 1.35,-1.05 2.76,-1.68 4.56,-1.68 0.58,0 1.13,0.08 1.59,0.18 0.84,0.18 1.79,0.59 2.49,1.08 0.17,0.13 0.33,0.25 0.5,0.38 0.75,0.6 1.57,1.66 1.94,2.54 0.05,0.12 0.09,0.19 0.14,0.31 0.88,2.22 0.6,4.44 -0.59,6.44 -0.27,0.44 -0.44,0.63 -0.77,1 -0.05,0.06 -0.05,0.06 -0.1,0.12l-0.59 0.55c-0.27,0.21 -0.44,0.37 -0.76,0.56 -0.11,0.06 -0.17,0.11 -0.28,0.16 -0.22,0.12 -0.36,0.2 -0.61,0.31 -0.42,0.18 -0.85,0.35 -1.32,0.45 -0.97,0.2 -1.44,0.23 -2.43,0.13 -0.29,-0.03 -0.51,-0.07 -0.76,-0.12 -0.8,-0.18 -1.83,-0.62 -2.48,-1.09 -0.74,-0.55 -1.49,-1.26 -1.96,-2.05 -0.06,-0.11 -0.11,-0.17 -0.17,-0.28 -0.14,-0.28 -0.31,-0.6 -0.44,-0.91l-0.31 -1.02c-0.1,-0.48 -0.19,-1.03 -0.19,-1.61zm6.93 -8.08l0.51 0c1.1,0.03 2.18,0.28 3.12,0.75 1.38,0.7 2.27,1.41 3.19,2.67 0.29,0.4 0.49,0.79 0.72,1.24 0.37,0.74 0.75,2.05 0.75,3.14l0 0.57c0,1.1 -0.39,2.42 -0.76,3.16 -0.69,1.36 -1.42,2.27 -2.66,3.17 -0.41,0.29 -0.78,0.49 -1.24,0.72 -0.74,0.37 -2.05,0.75 -3.14,0.75l-0.57 0c-1.11,0 -2.42,-0.39 -3.16,-0.76 -0.83,-0.42 -1.97,-1.14 -2.54,-1.88 -0.52,-0.67 -0.47,-0.47 -1.03,-1.4 -0.12,-0.2 -0.22,-0.42 -0.33,-0.64 -0.57,-1.14 -0.74,-2.3 -0.74,-3.72 0,-1.51 0.68,-3.29 1.49,-4.38 0.78,-1.04 1.4,-1.62 2.55,-2.32 1.11,-0.66 2.47,-1.03 3.84,-1.07z"/>
   <path class="fil0" d="M5.84 11.24c0,-0.35 0.29,-0.66 0.52,-0.84 1.14,-0.88 0.59,-2.25 1.63,-2.25 0.74,0 0.8,0.61 0.91,1.02 0.04,0.18 0.11,0.32 0.18,0.47 0.35,0.69 1.12,1.06 1.12,1.48 0,0.19 0.06,0.44 -0.41,0.44 -0.34,0 -0.65,-0.06 -0.95,-0.09 -0.86,-0.1 -1.33,-0.11 -2.17,0.06 -0.24,0.05 -0.83,0.12 -0.83,-0.29zm-0.98 -0.03c0,0.84 0.69,1.33 1.46,1.33 0.4,0 0.99,-0.16 1.61,-0.16 0.42,0 0.63,-0.01 1.05,0.05 0.48,0.08 0.22,0.11 0.81,0.11 0.64,0 1.39,-0.49 1.39,-1.2 0,-0.65 -0.16,-0.96 -0.59,-1.4 -1.07,-1.07 -0.56,-0.81 -0.96,-1.7 -0.57,-1.29 -2.42,-1.56 -3.2,-0.01 -0.12,0.24 -0.14,0.42 -0.21,0.7 -0.24,0.87 -1.36,1.1 -1.36,2.28z"/>
   <path class="fil0" d="M9.28 5.56c0,-0.65 0.62,-1.24 1.01,-0.85 0.28,0.28 0.2,0.76 0.04,1.07 -0.17,0.31 -0.54,0.61 -0.85,0.31 -0.13,-0.12 -0.2,-0.38 -0.2,-0.53zm-0.94 -0.19l0 0.31c0,0.74 0.6,1.49 1.32,1.49 0.57,0 0.97,-0.17 1.32,-0.61 0.93,-1.2 0.33,-2.93 -0.87,-2.93 -0.8,0 -1.28,0.42 -1.59,1.06 -0.07,0.15 -0.18,0.48 -0.18,0.68z"/>
   <path class="fil0" d="M5.84 5.37c0,-0.26 -0.01,-0.37 0.13,-0.6 0.39,-0.64 1.41,0.46 0.91,1.26 -0.31,0.52 -1.04,-0.15 -1.04,-0.66zm-0.98 -0.13c0,1.68 1.88,2.54 2.74,1.44 0.91,-1.16 0.1,-3.05 -1.35,-3.05 -0.82,0 -1.39,0.77 -1.39,1.61z"/>
   <path class="fil0" d="M11.72 9.19c-0.86,0 -0.43,-1.58 0.31,-1.58 0.75,0 0.45,1.58 -0.31,1.58zm-1.42 -0.66c0,0.52 0.06,0.8 0.38,1.19 0.38,0.48 1.13,0.57 1.67,0.29l0.48 -0.34c0.67,-0.67 0.86,-1.86 0.17,-2.62 -0.05,-0.05 -0.16,-0.13 -0.23,-0.18 -0.27,-0.19 -0.49,-0.21 -0.8,-0.21 -0.88,0 -1.67,0.95 -1.67,1.87z"/>
   <path class="fil0" d="M3.69 8.12c0,-1.08 1.24,-0.6 1.24,0.41 0,0.54 -0.55,0.82 -0.99,0.23 -0.13,-0.18 -0.25,-0.35 -0.25,-0.64zm-0.94 -0.19c0,0.58 0.11,1.13 0.49,1.52 0.41,0.42 0.67,0.59 1.34,0.59 0.69,0 1.29,-0.71 1.29,-1.42 0,-0.44 0.02,-0.56 -0.18,-0.98 -0.3,-0.65 -0.88,-1.1 -1.65,-1.1 -0.65,0 -1.29,0.64 -1.29,1.39z"/>
  </g>
 </g>
</svg>
