<?xml version="1.0" encoding="UTF-8"?>
<!DOCTYPE svg PUBLIC "-//W3C//DTD SVG 1.1//EN" "http://www.w3.org/Graphics/SVG/1.1/DTD/svg11.dtd">
<!-- Creator: CorelDRAW -->
<svg xmlns="http://www.w3.org/2000/svg" xml:space="preserve" width="65px" height="65px" version="1.1" style="shape-rendering:geometricPrecision; text-rendering:geometricPrecision; image-rendering:optimizeQuality; fill-rule:evenodd; clip-rule:evenodd"
viewBox="0 0 4.64 4.64"
 xmlns:xlink="http://www.w3.org/1999/xlink"
 xmlns:xodm="http://www.corel.com/coreldraw/odm/2003">
 <defs>
  <style type="text/css">
   <![CDATA[
    .fil0 {fill:#015FC9;fill-rule:nonzero}
   ]]>
  </style>
 </defs>
 <g id="Layer_x0020_1">
  <metadata id="CorelCorpID_0Corel-Layer"/>
  <path class="fil0" d="M3.82 1.1c-0.3,0 -0.55,0.24 -0.55,0.54 0,0.3 0.25,0.54 0.55,0.54 0.3,0 0.54,-0.24 0.54,-0.54 0,-0.3 -0.24,-0.54 -0.54,-0.54zm0.47 2.82c-0.2,-0.16 -0.46,-0.16 -0.65,0 -0.3,0.24 -0.7,0.24 -0.99,0 -0.2,-0.16 -0.45,-0.16 -0.65,0 -0.29,0.24 -0.69,0.24 -0.98,0 -0.2,-0.16 -0.46,-0.16 -0.66,0 -0.11,0.09 -0.23,0.14 -0.36,0.17l0 0.42c0,0.07 0.06,0.13 0.14,0.13l4.36 0c0.08,0 0.14,-0.06 0.14,-0.13l0 -0.43c-0.12,-0.02 -0.24,-0.07 -0.35,-0.16zm0.27 -0.69c-0.03,-0.02 -0.07,-0.04 -0.1,-0.07 -0.29,-0.23 -0.7,-0.23 -0.99,0 -0.2,0.16 -0.45,0.16 -0.65,0 -0.29,-0.23 -0.69,-0.23 -0.99,0 -0.19,0.16 -0.45,0.16 -0.64,0 -0.3,-0.23 -0.7,-0.23 -1,0 -0.03,0.03 -0.07,0.06 -0.11,0.08 -0.05,0.02 -0.08,0.07 -0.08,0.12l0 0.44c0.07,-0.01 0.13,-0.04 0.19,-0.09 0.3,-0.24 0.7,-0.24 1,0 0.19,0.15 0.45,0.15 0.64,0 0.3,-0.24 0.7,-0.24 0.99,0 0.2,0.15 0.45,0.15 0.65,0 0.29,-0.24 0.7,-0.24 0.99,0 0.06,0.04 0.12,0.07 0.18,0.09l0 -0.45c0,-0.05 -0.03,-0.1 -0.08,-0.12zm-2.26 -2.35l0.58 -0.38c0.12,-0.08 0.16,-0.25 0.07,-0.38 -0.08,-0.12 -0.25,-0.16 -0.37,-0.07l-0.82 0.54c-0.13,0.09 -0.16,0.27 -0.06,0.39l0.62 0.84 -1.39 0.93c0.16,0.03 0.3,0.1 0.43,0.2 0.1,0.08 0.21,0.08 0.3,0 0.2,-0.15 0.43,-0.24 0.67,-0.24 0.24,0 0.47,0.09 0.66,0.24 0.1,0.08 0.21,0.08 0.31,0 0.12,-0.1 0.25,-0.16 0.4,-0.2l-1.4 -1.87z"/>
 </g>
</svg>
