<?xml version="1.0" encoding="UTF-8"?>
<!DOCTYPE svg PUBLIC "-//W3C//DTD SVG 1.1//EN" "http://www.w3.org/Graphics/SVG/1.1/DTD/svg11.dtd">
<!-- Creator: CorelDRAW -->
<svg xmlns="http://www.w3.org/2000/svg" xml:space="preserve" width="50px" height="65px" version="1.1" style="shape-rendering:geometricPrecision; text-rendering:geometricPrecision; image-rendering:optimizeQuality; fill-rule:evenodd; clip-rule:evenodd"
viewBox="0 0 7.67 9.96"
 xmlns:xlink="http://www.w3.org/1999/xlink"
 xmlns:xodm="http://www.corel.com/coreldraw/odm/2003">
 <defs>
  <style type="text/css">
   <![CDATA[
    .fil0 {fill:#015FC9;fill-rule:nonzero}
   ]]>
  </style>
 </defs>
 <g id="Layer_x0020_1">
  <metadata id="CorelCorpID_0Corel-Layer"/>
  <path class="fil0" d="M7.43 7.03c0,-0.01 -0.01,-0.01 -0.01,-0.01 -0.01,-0.01 -0.01,-0.03 -0.02,-0.04 -0.01,-0.01 -0.01,-0.02 -0.02,-0.02 0,-0.01 -0.01,-0.02 -0.02,-0.03 0,-0.01 -0.01,-0.02 -0.02,-0.03 0,-0.01 0,-0.01 -0.01,-0.01 0,-0.01 0,-0.01 0,-0.01 -0.01,-0.01 -0.02,-0.03 -0.03,-0.04 -0.01,0 -0.01,-0.01 -0.01,-0.01 -0.01,-0.02 -0.02,-0.03 -0.04,-0.04 0,-0.01 0,-0.01 -0.01,-0.02 -0.01,-0.01 -0.02,-0.02 -0.03,-0.03 0,0 -0.01,-0.01 -0.02,-0.02 0,0 -0.01,-0.01 -0.01,-0.01 -0.2,-0.21 -0.45,-0.36 -0.73,-0.44 -0.01,0 -0.01,0 -0.02,0 0,0 -1.32,-0.25 -1.32,-0.25 0,0 0,0 0,0 -0.06,-0.01 -0.13,0 -0.18,0.02 -0.05,-0.05 -0.08,-0.13 -0.08,-0.2l0 -0.24c0.08,-0.05 0.16,-0.11 0.24,-0.18 0.33,-0.28 0.54,-0.69 0.58,-1.13 0.24,-0.01 0.43,-0.21 0.43,-0.45l0 -0.34c0,-0.14 -0.06,-0.27 -0.16,-0.35l0 -0.79c0.47,-0.23 0.58,-0.51 0.58,-0.7 0,-0.33 -0.31,-0.75 -0.81,-1.08 -0.32,-0.22 -0.99,-0.58 -1.87,-0.58 -0.89,0 -1.56,0.36 -1.88,0.58 -0.5,0.33 -0.8,0.75 -0.8,1.08 0,0.19 0.1,0.47 0.58,0.7l0 0.79c-0.11,0.08 -0.17,0.21 -0.17,0.35l0 0.34c0,0.24 0.19,0.44 0.43,0.45 0.05,0.44 0.25,0.85 0.58,1.13 0.08,0.07 0.16,0.13 0.24,0.18l0 0.24c0,0.07 -0.03,0.15 -0.07,0.2 -0.06,-0.02 -0.13,-0.03 -0.19,-0.02l-1.32 0.25c-0.01,0 -0.01,0 -0.02,0 -0.28,0.08 -0.52,0.23 -0.73,0.44 0,0 -0.01,0.01 -0.01,0.01 -0.01,0.01 -0.01,0.02 -0.02,0.02 -0.01,0.01 -0.02,0.02 -0.03,0.03 0,0.01 -0.01,0.01 -0.01,0.02 -0.01,0.01 -0.02,0.02 -0.03,0.04 -0.01,0 -0.01,0.01 -0.01,0.01 -0.01,0.01 -0.02,0.03 -0.03,0.04 -0.01,0 -0.01,0 -0.01,0.01 0,0 0,0 -0.01,0.01 -0.01,0.01 -0.01,0.02 -0.02,0.03 -0.01,0.01 -0.01,0.02 -0.02,0.03 -0.01,0 -0.01,0.01 -0.01,0.02 -0.01,0.01 -0.02,0.03 -0.03,0.04 0,0 0,0 0,0.01 -0.17,0.26 -0.25,0.56 -0.25,0.88l0 0.18c0,0.08 0.07,0.14 0.15,0.14 0.08,0 0.14,-0.06 0.14,-0.14l0 -0.18c0,-0.14 0.02,-0.28 0.06,-0.42 0.09,0.07 0.19,0.11 0.3,0.11 0.02,0 0.04,0 0.05,0 0.13,-0.02 0.25,-0.08 0.33,-0.18l0.16 -0.2c0.08,-0.1 0.11,-0.22 0.1,-0.35 -0.01,-0.1 -0.05,-0.2 -0.12,-0.27 0.04,-0.02 0.09,-0.03 0.13,-0.05l0.84 -0.15 0.67 0.93c0.07,0.1 0.17,0.15 0.28,0.15 0.04,0 0.09,-0.01 0.14,-0.03l0.04 -0.02 0.19 0.23 -0.28 2.01 -1.83 0 0 -1.18c0,-0.08 -0.07,-0.15 -0.15,-0.15 -0.08,0 -0.14,0.07 -0.14,0.15l0 1.18 -0.59 0c-0.1,0 -0.18,-0.08 -0.18,-0.18l0 -0.72c0,-0.09 -0.06,-0.15 -0.14,-0.15 -0.08,0 -0.15,0.06 -0.15,0.15l0 0.72c0,0.26 0.21,0.47 0.47,0.47l6.73 0c0.26,0 0.47,-0.21 0.47,-0.47l0 -1.58c0,-0.32 -0.08,-0.62 -0.24,-0.88zm-4.82 1.31l-0.77 0c-0.13,0 -0.23,0.11 -0.23,0.24l0 0.41c0,0.13 0.1,0.24 0.23,0.24l0.77 0c0.13,0 0.24,-0.11 0.24,-0.24l0 -0.41c0,-0.13 -0.11,-0.24 -0.24,-0.24zm-0.05 0.6l-0.66 0 0 -0.31 0.66 0 0 0.31zm3.27 -0.6l-0.77 0c-0.13,0 -0.24,0.11 -0.24,0.24l0 0.41c0,0.13 0.11,0.24 0.24,0.24l0.77 0c0.13,0 0.24,-0.11 0.24,-0.24l0 -0.41c0,-0.13 -0.11,-0.24 -0.24,-0.24zm-0.72 0.6l0 -0.31 0.67 0 0 0.31 -0.67 0zm-4.15 -1.9l-0.16 0.2c-0.03,0.04 -0.08,0.06 -0.13,0.07 -0.05,0 -0.1,-0.01 -0.14,-0.05l-0.06 -0.04c0.02,-0.03 0.03,-0.05 0.04,-0.07 0,0 0,0 0,0 0.02,-0.02 0.03,-0.04 0.04,-0.06 0.01,-0.01 0.01,-0.01 0.02,-0.02 0.01,-0.01 0.02,-0.03 0.03,-0.04 0,-0.01 0.01,-0.01 0.01,-0.02 0.01,-0.01 0.03,-0.03 0.04,-0.05 0.01,0 0.01,-0.01 0.02,-0.01 0.01,-0.02 0.03,-0.03 0.04,-0.05 0,0 0,0 0.01,0 0.05,-0.06 0.11,-0.11 0.18,-0.15l0.03 0.02c0.04,0.03 0.06,0.08 0.07,0.13 0.01,0.05 -0.01,0.1 -0.04,0.14zm5.78 -0.27l0.03 -0.02c0.07,0.04 0.13,0.09 0.19,0.15 0,0 0,0 0,0 0.02,0.02 0.03,0.03 0.05,0.05 0,0 0,0.01 0.01,0.01 0.01,0.02 0.03,0.04 0.04,0.05 0,0.01 0.01,0.01 0.01,0.02 0.01,0.01 0.03,0.03 0.04,0.04 0,0.01 0.01,0.01 0.01,0.02 0.01,0.02 0.03,0.04 0.04,0.06 0,0 0,0 0,0 0.01,0.02 0.03,0.04 0.04,0.07l-0.06 0.04c-0.04,0.04 -0.09,0.05 -0.14,0.05 -0.05,-0.01 -0.1,-0.03 -0.13,-0.07l-0.16 -0.2c-0.06,-0.08 -0.05,-0.2 0.03,-0.27zm-1.74 -0.43c0,0 0,0 0,0l0.04 -0.02c0,-0.01 0.01,-0.01 0.02,-0.01l0.15 0.03 -0.58 0.82c-0.02,0.02 -0.05,0.03 -0.07,0.02l-0.43 -0.18 0.87 -0.66zm-1.16 0.51l-0.85 -0.64c0.08,-0.1 0.12,-0.24 0.12,-0.37l0 -0.09c0.23,0.1 0.47,0.15 0.72,0.15 0.01,0 0.01,0 0.01,0 0,0 0,0 0,0 0.25,0 0.49,-0.05 0.72,-0.15l0 0.09c0,0.13 0.05,0.27 0.13,0.37l-0.85 0.64zm0.28 0.46l-0.13 0.15 -0.3 0 -0.14 -0.15 0.29 -0.12 0.28 0.12zm-2.38 -5.28c-0.19,-0.11 -0.29,-0.24 -0.29,-0.37 0,-0.26 0.35,-0.62 0.68,-0.84 0.29,-0.2 0.9,-0.53 1.71,-0.53 0.81,0 1.42,0.33 1.71,0.53 0.32,0.22 0.67,0.58 0.67,0.84 0,0.13 -0.1,0.26 -0.28,0.37l0 -0.26c0,-0.21 -0.14,-0.39 -0.34,-0.44 -0.38,-0.1 -1.12,-0.26 -1.86,-0.26 0,0 0,0 0,0 -0.63,0 -1.26,0.14 -1.67,0.26 -0.2,0.05 -0.33,0.23 -0.33,0.43l0 0.27zm0.5 0.51c0,0 0,0 0,0 -0.01,-0.01 -0.02,-0.01 -0.03,-0.02 0,0 -0.01,0 -0.01,-0.01 -0.01,0 -0.02,-0.01 -0.02,-0.01 -0.01,0 -0.01,-0.01 -0.02,-0.01 0,-0.01 -0.01,-0.01 -0.01,-0.01 -0.01,-0.01 -0.01,-0.01 -0.02,-0.02 0,0 -0.01,-0.01 -0.01,-0.01 0,0 -0.01,-0.01 -0.01,-0.02 -0.01,0 -0.01,0 -0.01,0 0,0 0,0 0,0l2.45 0c0.08,0 0.14,-0.07 0.14,-0.15 0,-0.08 -0.06,-0.15 -0.14,-0.15l-2.52 0 0 -0.37c0,-0.07 0.05,-0.13 0.11,-0.15 0.4,-0.11 1,-0.25 1.6,-0.25 0,0 0,0 0,0 0.7,0 1.42,0.16 1.78,0.25 0.08,0.02 0.12,0.08 0.12,0.16l0 0.36 -0.39 0c-0.08,0 -0.14,0.07 -0.14,0.15 0,0.08 0.06,0.15 0.14,0.15l0.33 0c0,0 0,0 0,0 -0.01,0 -0.01,0 -0.01,0 -0.01,0.01 -0.01,0.02 -0.02,0.02 0,0 -0.01,0.01 -0.01,0.01 0,0.01 -0.01,0.01 -0.02,0.02 0,0 -0.01,0 -0.01,0.01 -0.01,0 -0.01,0.01 -0.01,0.01 -0.01,0 -0.02,0.01 -0.03,0.01 0,0.01 0,0.01 -0.01,0.01 -0.01,0.01 -0.01,0.01 -0.02,0.02 -0.01,0 -0.01,0 -0.01,0 -0.06,0.04 -0.13,0.08 -0.22,0.11 0,0 0,0 0,0.01 -0.31,0.12 -0.78,0.22 -1.37,0.22 -0.59,0 -1.06,-0.1 -1.38,-0.22 0,-0.01 0,-0.01 0,-0.01 -0.08,-0.03 -0.16,-0.07 -0.22,-0.11zm0.02 0.34l0 0.29c-0.08,-0.04 -0.17,-0.07 -0.23,-0.08l0 -0.34c0.06,0.05 0.14,0.09 0.23,0.13zm3.16 0c0.09,-0.04 0.16,-0.08 0.22,-0.13l0 0.34c-0.06,0.01 -0.14,0.04 -0.22,0.08l0 -0.29zm-2.65 2.32c-0.3,-0.26 -0.48,-0.64 -0.48,-1.06 -0.01,-0.08 -0.07,-0.14 -0.15,-0.14l-0.12 0c-0.08,0 -0.16,-0.07 -0.16,-0.16l0 -0.34c0,-0.05 0.02,-0.1 0.06,-0.13 0.05,0.01 0.15,0.02 0.23,0.07 0,0 0,0 0,0.01 0.02,0 0.03,0.01 0.04,0.02 0,0 0,0 0,0 0.01,0.01 0.01,0.01 0.02,0.02 0,0 0,0.01 0.01,0.01 0,0 0,0 0,0 0.01,0 0.01,0.01 0.01,0.01 0.01,0 0.01,0 0.01,0 0,0.01 0.01,0.01 0.01,0.01 0,0 0,0 0,0 0.01,0 0.01,0.01 0.02,0.01 0,0 0,0 0,0 0.01,0 0.01,0 0.02,0.01 0,0 0,0 0,0 0.01,0 0.01,0 0.02,0 0,0 0,0 0,0 0,0 0.01,0 0.02,0 0,0 0,0 0,0 0.01,0 0.01,0 0.01,0 0,0 0.01,0 0.01,0 0,0 0,0 0,0 0,0 0.01,0 0.02,0 0,0 0,0 0,0 0,0 0.01,0 0.01,0 0.01,0 0.01,0 0.01,0 0,0 0.01,0 0.01,0 0,0 0.01,0 0.01,0 0,-0.01 0.01,-0.01 0.01,-0.01 0.08,-0.03 0.13,-0.11 0.13,-0.19l0 -0.35c0.37,0.12 0.84,0.18 1.29,0.18 0.45,0 0.91,-0.06 1.28,-0.18l0 0.35c0,0.08 0.05,0.16 0.13,0.19 0,0 0.01,0 0.02,0.01 0,0 0,0 0,0 0,0 0.01,0 0.01,0 0.01,0 0.01,0 0.01,0 0.01,0 0.02,0 0.03,0 0,0 0.01,0 0.01,0 0,0 0,0 0,0 0,0 0.01,0 0.01,0 0,0 0.01,0 0.01,0 0.01,0 0.02,0 0.03,0 0,0 0,0 0.01,0 0,-0.01 0,-0.01 0.01,-0.01 0,0 0,0 0,0 0.01,0 0.01,-0.01 0.02,-0.01 0,0 0,0 0,0 0,0 0.01,0 0.01,-0.01 0.01,0 0.01,0 0.01,0 0,0 0.01,-0.01 0.01,-0.01 0,0 0,0 0,0 0.01,0 0.01,-0.01 0.02,-0.01 0,-0.01 0.01,-0.01 0.01,-0.02 0,0 0,0 0.01,0 0,0 0.01,-0.01 0.01,-0.01 0,0 0,0 0,0 0.01,-0.01 0.01,-0.01 0.02,-0.01 0,-0.01 0,-0.01 0,-0.01 0.01,0 0.01,0 0.02,-0.01 0,0 0,0 0,0 0.01,0 0.01,0 0.02,-0.01 0,0 0,0 0,0 0.01,0 0.01,0 0.02,-0.01 0,0 0,0 0,0 0.01,0 0.01,0 0.02,0 0,0 0,0 0,-0.01 0.01,0 0.01,0 0.02,0 0,0 0,0 0,0 0,0 0.01,-0.01 0.02,-0.01 0,0 0,0 0,0 0.04,-0.01 0.08,-0.02 0.11,-0.02 0.04,0.03 0.06,0.08 0.06,0.13l0 0.34c0,0.09 -0.07,0.16 -0.16,0.16l-0.12 0c-0.08,0 -0.14,0.06 -0.14,0.14 -0.01,0.42 -0.19,0.8 -0.49,1.06 -0.31,0.27 -0.67,0.4 -1.06,0.41 -0.4,-0.01 -0.76,-0.14 -1.07,-0.41zm0.34 1.98c-0.02,0.01 -0.05,0 -0.06,-0.02l-0.59 -0.82 0.15 -0.03c0.01,0 0.02,0 0.03,0.01l0.03 0.02c0,0 0,0 0,0l0.88 0.66 -0.44 0.18zm0.37 2.49l0.27 -1.91 0.18 0 0.26 1.91 -0.71 0zm3.72 0l-0.59 0 0 -1.18c0,-0.08 -0.06,-0.15 -0.14,-0.15 -0.08,0 -0.15,0.07 -0.15,0.15l0 1.18 -1.83 0 -0.28 -2.01 0.19 -0.23 0.05 0.02c0.04,0.02 0.09,0.03 0.13,0.03 0.11,0 0.22,-0.05 0.28,-0.15l0.67 -0.93 0.84 0.15c0.05,0.02 0.09,0.03 0.13,0.05 -0.15,0.17 -0.16,0.44 -0.01,0.62l0.15 0.2c0.09,0.1 0.2,0.16 0.33,0.18 0.02,0 0.03,0 0.05,0 0.11,0 0.21,-0.04 0.3,-0.11 0.04,0.14 0.06,0.28 0.06,0.42l0 1.58 0 0c0,0.1 -0.08,0.18 -0.18,0.18z"/>
 </g>
</svg>
