<?xml version="1.0" encoding="UTF-8"?>
<!DOCTYPE svg PUBLIC "-//W3C//DTD SVG 1.1//EN" "http://www.w3.org/Graphics/SVG/1.1/DTD/svg11.dtd">
<!-- Creator: CorelDRAW -->
<svg xmlns="http://www.w3.org/2000/svg" xml:space="preserve" width="52px" height="65px" version="1.1" style="shape-rendering:geometricPrecision; text-rendering:geometricPrecision; image-rendering:optimizeQuality; fill-rule:evenodd; clip-rule:evenodd"
viewBox="0 0 29.36 36.79"
 xmlns:xlink="http://www.w3.org/1999/xlink"
 xmlns:xodm="http://www.corel.com/coreldraw/odm/2003">
 <defs>
  <style type="text/css">
   <![CDATA[
    .str0 {stroke:#015FC9;stroke-width:0.11;stroke-miterlimit:22.9256}
    .fil0 {fill:#015FC9;fill-rule:nonzero}
   ]]>
  </style>
 </defs>
 <g id="Layer_x0020_1">
  <metadata id="CorelCorpID_0Corel-Layer"/>
  <path class="fil0 str0" d="M12.33 18.53l-0.16 0.11c-0.64,0.42 -1.47,0.42 -2.12,0l-0.15 -0.11c-0.25,-0.16 -0.58,-0.09 -0.75,0.16 -0.16,0.25 -0.09,0.58 0.16,0.74l0.15 0.11c0.5,0.33 1.08,0.49 1.65,0.49 0.58,0 1.15,-0.16 1.65,-0.49l0.16 -0.11c0.25,-0.16 0.32,-0.49 0.16,-0.74 -0.17,-0.25 -0.5,-0.32 -0.75,-0.16zm16.43 -13.12c0.3,0 0.54,-0.25 0.54,-0.54l0 -2.99c0,-1.01 -0.82,-1.82 -1.82,-1.82l-3.06 0c-1.01,0 -1.83,0.81 -1.83,1.82l0 6.01c-1.99,-2.25 -4.85,-3.56 -7.91,-3.56 -3.06,0 -5.92,1.31 -7.92,3.56l0 -2.43c0,-0.29 -0.24,-0.53 -0.54,-0.53 -0.29,0 -0.53,0.24 -0.53,0.53l0 2.56 -4.56 0 0 -6.14c0,-0.41 0.34,-0.75 0.75,-0.75l3.06 0c0.41,0 0.75,0.34 0.75,0.75l0 1.21c0,0.3 0.24,0.54 0.53,0.54 0.3,0 0.54,-0.24 0.54,-0.54l0 -1.21c0,-1.01 -0.82,-1.82 -1.82,-1.82l-3.06 0c-1.01,0 -1.82,0.81 -1.82,1.82l0 9.11c0,2.24 0.34,4.45 1.02,6.58l0.36 1.14c0.47,1.46 1.26,2.84 2.3,3.97l3.18 3.49c0.31,0.33 0.75,0.53 1.2,0.53l0.01 0c0.16,0 0.32,-0.03 0.47,-0.07 0.65,0.67 1.4,1.26 2.24,1.74l0 1.5c0,0.73 -0.48,1.37 -1.18,1.58l-5.31 1.59c-0.59,0.18 -1.13,0.45 -1.62,0.82 -0.55,0.42 -0.76,1.12 -0.54,1.78 0.22,0.67 0.82,1.1 1.52,1.1l21.93 0c0.7,0 1.3,-0.43 1.53,-1.1 0.22,-0.66 0.01,-1.36 -0.54,-1.78 -0.49,-0.37 -1.03,-0.64 -1.62,-0.82l-1.16 -0.35c-0.29,-0.08 -0.59,0.08 -0.67,0.36 -0.09,0.29 0.08,0.59 0.36,0.67l1.16 0.35c0.46,0.14 0.89,0.36 1.28,0.65 0.27,0.21 0.2,0.49 0.17,0.58 -0.03,0.08 -0.15,0.36 -0.51,0.36l-21.93 0c-0.35,0 -0.47,-0.28 -0.5,-0.36 -0.03,-0.09 -0.1,-0.37 0.17,-0.58 0.38,-0.29 0.81,-0.51 1.28,-0.65l5.31 -1.59c1.15,-0.34 1.95,-1.41 1.95,-2.61l0 -0.92c0.9,0.42 1.88,0.62 2.85,0.62 0.91,0 1.82,-0.18 2.67,-0.54l0 0.84c0,1.2 0.8,2.27 1.94,2.61l1.8 0.54c0.28,0.08 0.58,-0.08 0.66,-0.36 0.09,-0.29 -0.07,-0.59 -0.36,-0.67l-1.79 -0.54c-0.69,-0.21 -1.17,-0.85 -1.17,-1.58l0 -1.4 0.02 -0.01c0,0 0,0 0,0 0.86,-0.5 1.63,-1.11 2.29,-1.81 0.13,0.03 0.26,0.05 0.4,0.05l0 0c0.46,0 0.9,-0.2 1.2,-0.53l3.19 -3.49c1.03,-1.13 1.83,-2.51 2.3,-3.97l0.36 -1.14c0.68,-2.13 1.02,-4.34 1.02,-6.58l0 -3.94c0,-0.3 -0.24,-0.54 -0.54,-0.54 -0.29,0 -0.53,0.24 -0.53,0.54l0 0.97 -4.56 0 0 -6.14c0,-0.41 0.34,-0.75 0.75,-0.75l3.06 0c0.41,0 0.75,0.34 0.75,0.75l0 2.99c0,0.29 0.24,0.54 0.53,0.54l0 0zm-6.17 4.24l0 1.96c0,0.33 -0.12,0.65 -0.36,0.89 -0.06,0.07 -0.13,0.14 -0.19,0.21 -1.61,-2.34 -4.31,-3.87 -7.36,-3.87 -0.08,0 -0.15,0 -0.23,0.01 1.73,-0.83 3.61,-1.31 5.53,-1.41l0.54 -0.03c0.8,0.62 1.5,1.37 2.07,2.24l0 0zm-7.91 -4.24c1.53,0 3.01,0.36 4.33,1.03 -2.21,0.25 -4.36,0.97 -6.27,2.1l-2.42 1.43c-0.02,0.01 -0.03,0.02 -0.05,0.03 -1.18,0.67 -2.19,1.6 -2.96,2.71 -0.06,-0.07 -0.12,-0.14 -0.18,-0.21 -0.24,-0.24 -0.37,-0.56 -0.37,-0.89l0 -1.96c1.77,-2.66 4.72,-4.24 7.92,-4.24l0 0zm-10.15 16.55c-0.93,-1.02 -1.65,-2.26 -2.07,-3.58l-0.36 -1.13c-0.64,-2.03 -0.97,-4.13 -0.97,-6.26l0 -1.89 4.56 0 0 2.51c0,0.62 0.24,1.2 0.67,1.64 0.53,0.55 0.83,1.27 0.83,2.04l0 3.36c0,0.32 -0.2,0.6 -0.49,0.71l-0.75 -1.29c-0.33,-0.57 -0.51,-1.22 -0.51,-1.88l0 -0.99c0,-0.3 -0.24,-0.54 -0.53,-0.54 -0.3,0 -0.54,0.24 -0.54,0.54l0 0.99c0,0.85 0.22,1.68 0.65,2.42l3.59 6.18c0.12,0.21 0.09,0.48 -0.08,0.66 -0.1,0.11 -0.25,0.17 -0.4,0.17 -0.16,0 -0.31,-0.06 -0.41,-0.18l-3.19 -3.48zm13.48 5.57l-0.36 0.2c-1.74,1.01 -3.92,1.03 -5.67,0.05l-0.51 -0.28c-0.74,-0.42 -1.41,-0.93 -1.99,-1.52 0.35,-0.51 0.38,-1.18 0.06,-1.73l-2.3 -3.95c0.61,-0.3 1.02,-0.93 1.02,-1.65l0 -3.36c0,-0.55 -0.11,-1.09 -0.32,-1.58 1.39,-2.27 3.89,-3.79 6.74,-3.79 2.85,0 5.35,1.52 6.74,3.79 -0.21,0.49 -0.33,1.03 -0.33,1.58l0 3.36c0,0.72 0.42,1.35 1.03,1.65l-2.3 3.95c-0.33,0.57 -0.29,1.27 0.1,1.79 -0.56,0.57 -1.2,1.07 -1.91,1.49zm10.22 -18.43l0 1.89c0,2.13 -0.33,4.23 -0.98,6.26l-0.36 1.13c-0.42,1.32 -1.13,2.56 -2.07,3.58l-3.18 3.48c-0.11,0.12 -0.25,0.18 -0.41,0.18 0,0 0,0 0,0 -0.16,0 -0.3,-0.06 -0.41,-0.17 -0.16,-0.18 -0.19,-0.45 -0.07,-0.66l3.59 -6.18c0.42,-0.74 0.65,-1.57 0.65,-2.42l0 -0.99c0,-0.3 -0.24,-0.54 -0.54,-0.54 -0.3,0 -0.54,0.24 -0.54,0.54l0 0.99c0,0.66 -0.17,1.31 -0.5,1.88l-0.75 1.29c-0.29,-0.11 -0.49,-0.39 -0.49,-0.71l0 -3.36c0,-0.77 0.29,-1.49 0.83,-2.04 0.43,-0.44 0.67,-1.02 0.67,-1.64l0 -2.51 4.56 0zm-11.74 15.7c0.24,-0.17 0.31,-0.5 0.15,-0.75 -0.16,-0.25 -0.5,-0.31 -0.74,-0.15l-0.16 0.1c-0.65,0.43 -1.48,0.43 -2.12,0l-0.16 -0.1c-0.25,-0.16 -0.58,-0.1 -0.74,0.15 -0.17,0.25 -0.1,0.58 0.15,0.75l0.16 0.1c0.5,0.33 1.07,0.5 1.65,0.5 0.57,0 1.15,-0.17 1.65,-0.5l0.16 -0.1zm3.56 -5.37c0.25,-0.16 0.32,-0.49 0.15,-0.74 -0.16,-0.25 -0.49,-0.32 -0.74,-0.16l-0.16 0.11c-0.64,0.42 -1.47,0.42 -2.12,0l-0.16 -0.11c-0.24,-0.16 -0.58,-0.09 -0.74,0.16 -0.16,0.25 -0.09,0.58 0.15,0.74l0.16 0.11c0.5,0.33 1.08,0.49 1.65,0.49 0.58,0 1.15,-0.16 1.65,-0.49l0.16 -0.11z"/>
 </g>
</svg>
