<?xml version="1.0" encoding="UTF-8"?>
<!DOCTYPE svg PUBLIC "-//W3C//DTD SVG 1.1//EN" "http://www.w3.org/Graphics/SVG/1.1/DTD/svg11.dtd">
<!-- Creator: CorelDRAW -->
<svg xmlns="http://www.w3.org/2000/svg" xml:space="preserve" width="86px" height="65px" version="1.1" style="shape-rendering:geometricPrecision; text-rendering:geometricPrecision; image-rendering:optimizeQuality; fill-rule:evenodd; clip-rule:evenodd"
viewBox="0 0 7.06 5.34"
 xmlns:xlink="http://www.w3.org/1999/xlink"
 xmlns:xodm="http://www.corel.com/coreldraw/odm/2003">
 <defs>
  <style type="text/css">
   <![CDATA[
    .fil0 {fill:#015FC9;fill-rule:nonzero}
   ]]>
  </style>
 </defs>
 <g id="Layer_x0020_1">
  <metadata id="CorelCorpID_0Corel-Layer"/>
  <path class="fil0" d="M1.15 2.45c-0.15,0.15 -0.15,0.39 0,0.54 0.15,0.15 0.38,0.15 0.53,0 1.02,-1.02 2.68,-1.02 3.7,0 0.07,0.07 0.17,0.11 0.27,0.11 0.09,0 0.19,-0.04 0.26,-0.11 0.15,-0.15 0.15,-0.39 0,-0.54 -1.31,-1.31 -3.45,-1.31 -4.76,0zm5.8 -1.04c-1.89,-1.88 -4.95,-1.88 -6.84,0 -0.15,0.15 -0.15,0.39 0,0.54 0.15,0.15 0.39,0.15 0.54,0 1.59,-1.59 4.18,-1.59 5.77,0 0.07,0.07 0.17,0.11 0.26,0.11 0.1,0 0.2,-0.04 0.27,-0.11 0.15,-0.15 0.15,-0.39 0,-0.54zm-2.92 3.42c0,-0.27 -0.22,-0.5 -0.5,-0.5 -0.28,0 -0.5,0.23 -0.5,0.5 0,0.28 0.22,0.51 0.5,0.51 0.28,0 0.5,-0.23 0.5,-0.51zm-1.86 -1.36c-0.15,0.15 -0.15,0.39 0,0.54 0.15,0.15 0.39,0.15 0.54,0 0.45,-0.46 1.19,-0.46 1.65,0 0.07,0.07 0.17,0.11 0.26,0.11 0.1,0 0.2,-0.04 0.27,-0.11 0.15,-0.15 0.15,-0.39 0,-0.53 -0.75,-0.76 -1.97,-0.76 -2.72,-0.01z"/>
 </g>
</svg>
